<svg width="64" height="24" viewBox="0 0 64 24" fill="none" xmlns="http://www.w3.org/2000/svg">
<path d="M18.0396 5.32065C17.5239 5.92864 16.6989 6.40818 15.8738 6.33968C15.7706 5.5176 16.1746 4.64415 16.6473 4.10466C17.163 3.47954 18.0654 3.03425 18.796 3C18.8819 3.85633 18.5467 4.69553 18.0396 5.32065ZM18.7874 6.50238C17.5927 6.43387 16.5699 7.17888 16.0027 7.17888C15.4268 7.17888 14.5588 6.53663 13.6133 6.55376C12.3843 6.57088 11.2412 7.26451 10.6138 8.36917C9.32457 10.5785 10.2786 13.8497 11.5248 15.648C12.135 16.5385 12.8656 17.5147 13.8282 17.4805C14.7393 17.4462 15.1002 16.8896 16.2004 16.8896C17.3091 16.8896 17.6271 17.4805 18.5897 17.4634C19.5867 17.4462 20.2141 16.5728 20.8243 15.6822C21.5205 14.6717 21.8041 13.687 21.8213 13.6356C21.8041 13.6185 19.8961 12.8906 19.8789 10.6984C19.8617 8.86584 21.383 7.99239 21.4517 7.94101C20.5923 6.67364 19.2515 6.53663 18.7874 6.50238ZM25.6889 4.01903V17.3692H27.7689V12.8049H30.6481C33.2781 12.8049 35.126 11.0067 35.126 8.40343C35.126 5.80019 33.3125 4.01903 30.7169 4.01903H25.6889ZM27.7689 5.76594H30.1668C31.9717 5.76594 33.0031 6.72502 33.0031 8.41199C33.0031 10.099 31.9717 11.0666 30.1582 11.0666H27.7689V5.76594ZM38.9248 17.4719C40.2312 17.4719 41.4431 16.8126 41.9932 15.7678H42.0361V17.3692H43.9614V10.7241C43.9614 8.79734 42.4143 7.55566 40.0336 7.55566C37.8247 7.55566 36.1917 8.81446 36.1315 10.5442H38.0052C38.1599 9.72217 38.9248 9.18268 39.9734 9.18268C41.2454 9.18268 41.9588 9.77355 41.9588 10.8611V11.5975L39.3632 11.7517C36.948 11.8972 35.6416 12.882 35.6416 14.5947C35.6416 16.3245 36.991 17.4719 38.9248 17.4719ZM39.4835 15.8877C38.3748 15.8877 37.67 15.3568 37.67 14.5433C37.67 13.7041 38.349 13.216 39.6468 13.1389L41.9588 12.9933V13.7469C41.9588 14.9971 40.893 15.8877 39.4835 15.8877ZM46.5312 21C48.5595 21 49.5135 20.2293 50.3472 17.8915L54 7.68411H51.8857L49.4362 15.5709H49.3932L46.9437 7.68411H44.7693L48.2931 17.4034L48.104 17.9943C47.786 18.9962 47.2703 19.3815 46.3507 19.3815C46.1874 19.3815 45.8694 19.3644 45.7405 19.3473V20.9486C45.8608 20.9829 46.3765 21 46.5312 21Z" fill="white"/>
</svg>
