<svg width="64" height="24" viewBox="0 0 64 24" fill="none" xmlns="http://www.w3.org/2000/svg">
<path fill-rule="evenodd" clip-rule="evenodd" d="M5.90511 17.8213C9.37327 18.6228 12.8855 16.6667 13.7501 13.4524C14.6146 10.238 12.5044 6.98189 9.03646 6.18052C5.56932 5.37916 2.05706 7.3355 1.1929 10.5501C0.327939 13.7642 2.43837 17.0199 5.90511 17.8213ZM8.90228 9.63188C9.799 9.91819 10.4548 10.3474 10.326 11.1457C10.2327 11.7302 9.88315 12.0131 9.41911 12.1123C10.0563 12.4198 10.3806 12.8913 10.0717 13.7088C9.68835 14.7241 8.77767 14.8098 7.5666 14.5974L7.27268 15.6892L6.56246 15.5251L6.85254 14.4479C6.66846 14.4056 6.48033 14.3606 6.28654 14.3118L5.99546 15.394L5.28605 15.23L5.57996 14.1361C5.51365 14.1204 5.44692 14.1042 5.37971 14.088C5.27881 14.0636 5.17685 14.039 5.07365 14.015L4.14941 13.8014L4.502 13.0479C4.502 13.0479 5.02531 13.1769 5.01823 13.1673C5.2193 13.2134 5.3085 13.092 5.3437 13.011L5.80814 11.285C5.82554 11.2889 5.84257 11.2929 5.859 11.2967C5.86723 11.2986 5.8753 11.3005 5.88319 11.3023C5.85487 11.2918 5.82918 11.285 5.80935 11.2804L6.1407 10.0483C6.14939 9.90844 6.09741 9.732 5.80976 9.66544C5.82089 9.6585 5.29394 9.54657 5.29394 9.54657L5.48287 8.84345L6.46233 9.07014L6.46152 9.07352C6.60878 9.10745 6.76049 9.1397 6.91504 9.17232L7.20612 8.09122L7.91594 8.25528L7.63072 9.3152C7.82127 9.35551 8.01304 9.3962 8.19975 9.43932L8.48294 8.38634L9.19316 8.5504L8.90228 9.63188ZM6.65581 13.5529C7.23532 13.6948 8.50187 14.0049 8.70323 13.2549C8.90956 12.488 7.68122 12.2325 7.08184 12.1079C7.01486 12.094 6.95574 12.0817 6.90735 12.0705L6.51735 13.5196C6.55709 13.5288 6.60367 13.5402 6.65581 13.5529ZM7.20227 11.4354C7.68543 11.5549 8.73933 11.8156 8.92291 11.1339C9.11037 10.4367 8.08607 10.2265 7.58582 10.1239C7.52954 10.1123 7.4799 10.1021 7.43936 10.0928L7.08577 11.4071C7.11916 11.4148 7.15836 11.4245 7.20227 11.4354Z" fill="white"/>
<path d="M19.9684 9.63088C20.4933 9.63088 20.9469 9.71807 21.328 9.88925C21.7109 10.0621 22.0268 10.295 22.2803 10.5879C22.5303 10.8822 22.7164 11.2263 22.8366 11.6206C22.9559 12.016 23.0158 12.4411 23.0158 12.8961C23.0158 13.5951 22.8777 14.2555 22.5987 14.878C22.3198 15.5014 21.9413 16.0422 21.4598 16.5034C20.9788 16.9641 20.4108 17.3273 19.7558 17.5956C19.1018 17.8641 18.3908 17.9983 17.6274 17.9983C17.5287 17.9983 17.3551 17.9957 17.1099 17.991C16.8648 17.9863 16.583 17.9629 16.2674 17.9233C15.9498 17.8823 15.614 17.8215 15.2594 17.7401C14.905 17.6603 14.5684 17.5483 14.2515 17.4062L17.0859 6.36712L19.6245 6.00244L18.6097 9.91982C18.8269 9.82907 19.0458 9.75876 19.2643 9.70757C19.4829 9.65713 19.7176 9.63088 19.9684 9.63088ZM17.839 16.1316C18.2213 16.1316 18.5815 16.0444 18.92 15.8732C19.2594 15.7019 19.5523 15.4705 19.7977 15.1823C20.0431 14.8928 20.2372 14.5667 20.3788 14.2024C20.5204 13.8381 20.5921 13.4581 20.5921 13.0626C20.5921 12.5768 20.5045 12.1979 20.3299 11.924C20.1553 11.6512 19.8323 11.5139 19.3632 11.5139C19.2094 11.5139 19.0114 11.5411 18.7658 11.5897C18.5194 11.6412 18.299 11.7483 18.1013 11.9093L17.0207 16.0695C17.0859 16.0802 17.1435 16.0903 17.1927 16.0999C17.2408 16.1102 17.294 16.1175 17.347 16.1226C17.403 16.1284 17.4672 16.1314 17.5446 16.1314C17.6221 16.1314 17.719 16.1316 17.839 16.1316Z" fill="white"/>
<path d="M25.6489 17.787H23.2241L25.2718 9.80022H27.7132L25.6489 17.787ZM26.8288 8.82711C26.4904 8.82711 26.1835 8.73373 25.9113 8.54661C25.6368 8.36061 25.5008 8.07431 25.5008 7.68844C25.5008 7.47619 25.5474 7.27707 25.6396 7.08919C25.7333 6.9017 25.8556 6.74026 26.009 6.60302C26.1621 6.46689 26.3395 6.35814 26.541 6.27621C26.7437 6.19558 26.9593 6.15527 27.1891 6.15527C27.5273 6.15527 27.8326 6.24865 28.1058 6.43577C28.3781 6.62383 28.5151 6.91014 28.5151 7.29394C28.5151 7.50694 28.4687 7.70681 28.3757 7.89431C28.2832 8.0818 28.1609 8.24324 28.0075 8.38049C27.8556 8.5168 27.6766 8.62517 27.4755 8.70636C27.2726 8.78829 27.0578 8.82711 26.8288 8.82711Z" fill="white"/>
<path d="M29.8383 7.81L32.378 7.44531L31.7544 9.79953H34.4743L33.9831 11.6516H31.2796L30.5595 14.4453C30.4931 14.6782 30.4555 14.8957 30.445 15.0978C30.4331 15.3009 30.4608 15.4753 30.5263 15.6221C30.5914 15.7692 30.7086 15.8827 30.8785 15.9629C31.0476 16.0445 31.2897 16.0856 31.6073 16.0856C31.8689 16.0856 32.1237 16.0625 32.3701 16.0167C32.6151 15.9717 32.8633 15.9091 33.1145 15.8272L33.2954 17.5589C32.9677 17.6703 32.6129 17.7661 32.2306 17.8467C31.8476 17.9285 31.3943 17.9678 30.8704 17.9678C30.1171 17.9678 29.5331 17.8642 29.117 17.6577C28.7015 17.4498 28.4078 17.1657 28.232 16.8061C28.0586 16.4478 27.9812 16.0347 28.0028 15.5694C28.0253 15.1029 28.1011 14.6126 28.232 14.0962L29.8383 7.81Z" fill="white"/>
<path d="M34.3674 14.5974C34.3674 13.9095 34.4876 13.2608 34.7277 12.6535C34.9674 12.0456 35.3127 11.514 35.7608 11.0579C36.2072 10.6039 36.7511 10.2443 37.3914 9.98032C38.0286 9.71782 38.742 9.58545 39.5283 9.58545C40.0204 9.58545 40.46 9.62858 40.8468 9.71501C41.2352 9.8022 41.5865 9.91488 41.9043 10.0563L41.0681 11.8187C40.8496 11.7366 40.6228 11.6642 40.3884 11.5986C40.1538 11.5317 39.8673 11.4994 39.5285 11.4994C38.7192 11.4994 38.0793 11.758 37.6032 12.2734C37.1288 12.7892 36.8899 13.4835 36.8899 14.3544C36.8899 14.8706 37.0101 15.288 37.2512 15.6073C37.4911 15.9266 37.9343 16.0854 38.5778 16.0854C38.8953 16.0854 39.2018 16.0547 39.4953 15.9947C39.7911 15.9339 40.0522 15.8574 40.2822 15.767L40.4632 17.5738C40.1566 17.684 39.8184 17.7836 39.4474 17.8708C39.0756 17.9549 38.633 17.9986 38.1198 17.9986C37.4423 17.9986 36.8689 17.9068 36.3998 17.7258C35.9305 17.5421 35.5427 17.2981 35.2372 16.9891C34.9302 16.6794 34.7097 16.3177 34.5734 15.9026C34.437 15.4879 34.3674 15.0521 34.3674 14.5974Z" fill="white"/>
<path d="M45.1389 17.9986C44.5602 17.9986 44.0575 17.9169 43.6311 17.7551C43.2059 17.5933 42.8537 17.3662 42.5752 17.0718C42.2962 16.779 42.0875 16.4319 41.9445 16.032C41.8014 15.6322 41.7327 15.1896 41.7327 14.7045C41.7327 14.0961 41.8381 13.4878 42.0511 12.8813C42.2631 12.2734 42.5776 11.7272 42.9939 11.2418C43.407 10.7556 43.9165 10.3581 44.5165 10.0482C45.1159 9.74032 45.8052 9.58545 46.5796 9.58545C47.1478 9.58545 47.6478 9.66738 48.0801 9.82919C48.5104 9.99063 48.8648 10.2196 49.145 10.5124C49.4221 10.8068 49.6327 11.1524 49.7743 11.5529C49.9169 11.9519 49.9873 12.3957 49.9873 12.8811C49.9873 13.4876 49.8833 14.0959 49.677 14.7043C49.4704 15.3097 49.164 15.8572 48.7594 16.3438C48.3556 16.8292 47.8507 17.2265 47.2443 17.5351C46.6387 17.8438 45.9363 17.9986 45.1389 17.9986ZM46.3508 11.4996C45.9914 11.4996 45.6736 11.5964 45.4015 11.7874C45.1284 11.9807 44.899 12.2237 44.7141 12.5168C44.5272 12.8111 44.3887 13.1321 44.295 13.4811C44.2021 13.8308 44.1566 14.1613 44.1566 14.4754C44.1566 14.9822 44.2448 15.3769 44.4182 15.6609C44.594 15.9435 44.9097 16.0856 45.3687 16.0856C45.7294 16.0856 46.0456 15.9896 46.3193 15.7965C46.5907 15.6047 46.8203 15.3615 47.0066 15.0679C47.1923 14.775 47.3321 14.4531 47.4257 14.1036C47.5174 13.755 47.5641 13.4226 47.5641 13.1091C47.5641 12.6036 47.4763 12.208 47.3013 11.9243C47.1266 11.6417 46.8094 11.4996 46.3508 11.4996Z" fill="white"/>
<path d="M52.6297 17.787H50.2029L52.2506 9.80022H54.6932L52.6297 17.787ZM53.8078 8.82711C53.4696 8.82711 53.1629 8.73373 52.891 8.54661C52.6179 8.36061 52.4808 8.07431 52.4808 7.68844C52.4808 7.47619 52.5279 7.27707 52.6204 7.08919C52.7128 6.9017 52.836 6.74026 52.9893 6.60302C53.1417 6.46689 53.3207 6.35814 53.5217 6.27621C53.7232 6.19558 53.9388 6.15527 54.1678 6.15527C54.5069 6.15527 54.8131 6.24865 55.0858 6.43577C55.3587 6.62383 55.4964 6.91014 55.4964 7.29394C55.4964 7.50694 55.4475 7.70681 55.3559 7.89431C55.2642 8.0818 55.141 8.24324 54.9883 8.38049C54.8346 8.5168 54.6578 8.62517 54.4563 8.70636C54.2532 8.78829 54.038 8.82711 53.8078 8.82711Z" fill="white"/>
<path d="M56.4404 10.163C56.6245 10.1132 56.83 10.0532 57.0535 9.98791C57.2779 9.92266 57.5285 9.86191 57.8085 9.80716C58.0854 9.75073 58.3979 9.70497 58.7416 9.66954C59.0853 9.63335 59.4769 9.61572 59.912 9.61572C61.1909 9.61572 62.0724 9.96091 62.5591 10.6492C63.0454 11.3375 63.1295 12.2795 62.814 13.4735L61.6986 17.7859H59.2578L60.3388 13.5642C60.4048 13.3006 60.4566 13.0458 60.4948 12.7968C60.5334 12.5501 60.5312 12.3326 60.4861 12.1443C60.443 11.9583 60.3415 11.8061 60.1839 11.6881C60.0239 11.5721 59.7822 11.5138 59.4542 11.5138C59.1381 11.5138 58.8164 11.5453 58.4881 11.606L56.8988 17.7857H54.457L56.4404 10.163Z" fill="white"/>
</svg>
