<svg width="64" height="24" viewBox="0 0 64 24" fill="none" xmlns="http://www.w3.org/2000/svg">
<path d="M5.71982 16.6852C4.5798 16.6852 3.64978 16.3952 2.98977 15.8052C2.32976 15.2152 1.99976 14.4652 1.99976 13.4951V9.53507C1.99976 8.72506 2.28976 8.06504 2.89977 7.48503C3.51978 6.91502 4.21979 6.64502 5.07981 6.64502H8.63987C9.64989 6.64502 10.4899 6.93502 11.0999 7.52504C11.7199 8.11505 12.0199 8.88506 12.0199 9.83508C12.0199 10.7851 11.7099 11.5751 11.0999 12.1451C10.4799 12.7351 9.64989 13.0251 8.63987 13.0251H3.60978V13.4851C3.60978 14.0551 3.75979 14.4752 4.08979 14.7652C4.4198 15.0252 4.94981 15.1652 5.71982 15.1652H11.6999V16.6652H5.71982V16.6852ZM5.05981 8.17505C4.10979 8.17505 3.60978 8.65506 3.60978 9.53507V11.5351H8.62987C9.79989 11.5351 10.4099 10.9451 10.4099 9.84507C10.4099 8.74505 9.78989 8.17505 8.62987 8.17505H5.05981Z" fill="white"/>
<path d="M14.741 19.9455V6.65527H20.7211C21.8611 6.65527 22.8311 7.00528 23.6011 7.68529C24.3711 8.3653 24.7411 9.22532 24.7411 10.1953V12.4854C24.7411 13.4754 24.3411 14.3154 23.6011 14.9954C22.8311 15.6954 21.8611 16.0554 20.7211 16.0554H16.341V19.9455H14.741ZM16.351 14.5354H20.7311C21.4811 14.5354 22.0711 14.3354 22.5111 13.9854C22.9511 13.6154 23.1711 13.1054 23.1711 12.5154V10.2253C23.1711 9.63533 22.9511 9.14532 22.5111 8.75531C22.0711 8.3853 21.4811 8.2053 20.7311 8.2053H16.351V14.5354Z" fill="white"/>
<path d="M32.3706 17.0152C30.9206 17.0152 29.6406 16.4852 28.6106 15.4552C27.5805 14.4251 27.0505 13.1451 27.0505 11.6951C27.0505 10.2451 27.5805 8.96504 28.6106 7.93503C29.6406 6.90501 30.9206 6.375 32.3706 6.375C33.8407 6.375 35.1207 6.90501 36.1507 7.93503C37.1807 8.96504 37.7107 10.2451 37.7107 11.6951C37.7107 13.1451 37.1807 14.4251 36.1507 15.4552C35.1207 16.4852 33.8407 17.0152 32.3706 17.0152ZM32.3906 7.88503C31.3306 7.88503 30.4306 8.25503 29.6806 9.00504C28.9306 9.75506 28.5606 10.6551 28.5606 11.7151C28.5606 12.7751 28.9306 13.6751 29.6806 14.4251C30.4306 15.1752 31.3306 15.5452 32.3906 15.5452C33.4206 15.5452 34.3307 15.1752 35.0707 14.4251C35.8207 13.6751 36.1907 12.7751 36.1907 11.7151C36.1907 10.6551 35.8207 9.75506 35.0707 9.00504C34.3307 8.26503 33.4206 7.88503 32.3906 7.88503Z" fill="white"/>
<path d="M44.0303 16.6847C42.8903 16.6847 41.9203 16.3347 41.1303 15.6547C40.3602 14.9747 39.9902 14.1547 39.9902 13.1947V10.1546C39.9902 9.20459 40.3902 8.37458 41.1303 7.69457C41.9003 7.01456 42.8703 6.66455 44.0303 6.66455H49.3804V8.16458H44.0303C43.2803 8.16458 42.6903 8.34458 42.2703 8.71459C41.8303 9.08459 41.6103 9.5746 41.6103 10.1446V13.2047C41.6103 13.7747 41.8303 14.2647 42.2703 14.6347C42.7103 14.9847 43.3003 15.1847 44.0303 15.1847H49.3804V16.6847H44.0303Z" fill="white"/>
<path d="M60.3999 16.6854V10.3753C60.3999 8.85526 59.5599 8.04525 57.9599 8.04525H53.9098V16.6954H52.2998V4.05518H53.9098V6.51522H57.9599C59.1299 6.51522 60.1199 6.88523 60.86 7.59524C61.61 8.32525 62 9.24527 62 10.3653V16.6754H60.3999V16.6854Z" fill="white"/>
</svg>
