<svg width="64" height="24" viewBox="0 0 64 24" fill="none" xmlns="http://www.w3.org/2000/svg">
<path d="M19.9348 14.6424C22.015 14.6424 23.9193 14.608 25.8214 14.6596C26.5387 14.6791 26.7212 14.4555 26.6876 13.7711C26.5799 11.5503 25.4377 9.8681 23.5311 9.23232C21.7232 8.62945 19.7284 9.19492 18.5212 10.7238C17.385 12.1636 17.1748 13.777 17.9415 15.442C18.7007 17.0906 20.0059 18.0772 21.8654 18.1355C23.6919 18.1931 25.5222 18.1497 27.3503 18.1639C27.565 18.1654 27.8627 18.0308 27.9793 18.3128C28.0781 18.5514 27.8814 18.7601 27.7445 18.9441C27.4041 19.4018 26.9299 19.5963 26.363 19.5956C23.5019 19.5933 20.6409 19.6083 17.7807 19.5866C16.7582 19.5791 16.0409 18.9044 16.0274 17.867C15.99 15.0194 15.9922 12.1711 16.0259 9.32357C16.0386 8.28688 16.7312 7.60472 17.7717 7.5935C20.6319 7.56208 23.4937 7.56358 26.354 7.592C27.3907 7.60248 28.0923 8.28613 28.1132 9.31235C28.1536 11.308 28.117 13.3051 28.1349 15.3014C28.1387 15.7248 27.9913 15.8624 27.5717 15.8587C25.6546 15.8415 23.7376 15.8594 21.8205 15.84C21.0359 15.8325 20.4666 15.4316 19.9348 14.6424Z" fill="white"/>
<path d="M36.9497 18.1558C37.7994 17.5455 38.332 16.9695 38.6588 16.2387C38.8466 15.8199 39.1862 15.8483 39.5437 15.8491C41.2528 15.8535 42.962 15.8565 44.6711 15.8468C45.093 15.8446 45.6771 15.965 45.6876 15.3195C45.6988 14.6149 45.0847 14.7398 44.6322 14.7316C43.8663 14.7174 43.0996 14.7428 42.3337 14.7241C40.638 14.683 39.3515 13.4488 39.3447 11.8765C39.338 10.2916 40.6036 9.0574 42.312 9.02225C43.52 8.99756 44.7294 9.04394 45.9359 9.00579C46.5425 8.98634 46.7647 9.16586 46.7422 9.79566C46.6794 11.531 46.9442 11.2153 45.2994 11.243C44.3569 11.2587 43.4137 11.246 42.4705 11.2467C42.0472 11.2467 41.6545 11.3739 41.6552 11.8496C41.6552 12.3246 42.0494 12.4532 42.4713 12.454C43.3255 12.457 44.1804 12.4487 45.0346 12.457C46.7445 12.4742 47.9944 13.6702 48.0011 15.2843C48.0078 16.9104 46.7662 18.1424 45.0758 18.1506C42.4541 18.1648 39.8332 18.1558 36.9497 18.1558Z" fill="white"/>
<path d="M25.93 5.02561C25.9367 6.05633 25.3024 6.47669 24.3121 6.1214C24.0526 6.0279 24.0421 5.84689 24.0346 5.64045C24.0226 5.31807 24.0428 4.99195 24.0009 4.67332C23.8603 3.59997 23.0555 2.91557 22.0068 2.95147C20.9514 2.98812 20.2319 3.71665 20.1653 4.81917C20.1586 4.9366 20.1773 5.05703 20.1571 5.17072C20.1002 5.49086 20.3538 5.98078 19.8848 6.08101C19.4091 6.18274 18.8893 6.1229 18.3941 6.07428C18.2123 6.05633 18.2258 5.80052 18.2049 5.624C17.9229 3.20429 19.549 1.14884 21.8625 1.00748C24.1146 0.869847 25.915 2.64854 25.93 5.02561Z" fill="white"/>
<path d="M24.1498 12.4184C22.7234 12.4184 21.4197 12.4184 20.1047 12.4184C20.8819 10.7766 22.9351 10.7272 24.1498 12.4184Z" fill="white"/>
<path d="M34.1726 9.03008C31.827 8.82364 29.6638 10.532 29.3616 12.8799C29.1469 14.5449 29.3407 16.2234 29.2778 17.5922C29.2778 19.0994 29.2778 20.3029 29.2778 21.5071C29.2778 23.1766 29.2771 23.1609 30.9421 23.0936C31.3871 23.0756 31.5816 22.9619 31.5614 22.4892C31.5308 21.7562 31.5539 21.0217 31.5539 20.2872C31.5539 18.1629 31.5539 18.1629 33.643 18.1554C33.7612 18.1547 33.8794 18.1569 33.9968 18.1539C36.3537 18.0978 38.3381 16.1007 38.3994 13.7236C38.4638 11.2837 36.629 9.24625 34.1726 9.03008ZM35.9655 14.3789C35.6065 15.2697 34.937 15.7896 33.9482 15.8397C33.6543 15.8546 33.3588 15.8419 33.0649 15.8419C31.5524 15.8509 31.5524 15.8509 31.5539 14.3033C31.5562 12.5987 32.0334 11.7333 33.1524 11.4012C34.0574 11.1334 34.8495 11.3264 35.4868 12.0168C36.1174 12.6997 36.3178 13.5052 35.9655 14.3789Z" fill="white"/>
</svg>
