<svg width="64" height="24" viewBox="0 0 64 24" fill="none" xmlns="http://www.w3.org/2000/svg">
<path fill-rule="evenodd" clip-rule="evenodd" d="M19.8493 7.06134C19.0728 6.32064 18.036 5.91524 16.963 5.93277C15.0006 5.93277 13.3349 7.25571 12.7393 9.03843L12.7391 9.03834V9.03852C12.4242 9.97268 12.4242 10.9843 12.7391 11.9185H12.7393C13.3349 13.7012 15.0006 15.0241 16.963 15.0241C17.9797 15.0241 18.8491 14.7629 19.5241 14.3053V14.3042C19.916 14.0443 20.2511 13.7077 20.5094 13.3148C20.7676 12.9218 20.9436 12.4806 21.0268 12.0178H16.9629V9.12012H24.0583C24.1451 9.62542 24.1885 10.1372 24.1878 10.65C24.1878 12.9395 23.3696 14.8758 21.9495 16.1852H21.9484L21.9496 16.1861C20.703 17.3356 18.9934 18.0023 16.963 18.0023C15.5684 18.0022 14.2013 17.6146 13.0142 16.8825C11.8272 16.1505 10.8669 15.103 10.2407 13.8569L10.2406 13.8569C9.71381 12.8086 9.43945 11.6517 9.43945 10.4785C9.43945 9.3053 9.71381 8.14837 10.2406 7.1001H10.2408L10.2407 7.1C10.8669 5.8539 11.8272 4.80636 13.0142 4.07435C14.2013 3.34234 15.5684 2.95466 16.963 2.9546C18.8311 2.93278 20.635 3.63495 21.9967 4.91392L19.8493 7.06134ZM30.9866 11.7933V17.0966H29.3042V3.9999H33.7662C34.2988 3.98878 34.8284 4.08324 35.3243 4.27784C35.8202 4.47244 36.2727 4.76332 36.6556 5.1337C37.0424 5.48159 37.3502 5.90825 37.5584 6.38499C37.7665 6.86172 37.8703 7.3775 37.8625 7.89766C37.8736 8.42059 37.7715 8.93974 37.5632 9.41951C37.3548 9.89929 37.0452 10.3284 36.6556 10.6773C35.8753 11.4213 34.9122 11.793 33.7662 11.7923H30.9866V11.7933ZM30.9866 5.6123V10.1841H33.808C34.1173 10.1932 34.4252 10.1377 34.7118 10.0211C34.9984 9.90454 35.2576 9.7294 35.4727 9.50692C35.6866 9.2989 35.8567 9.05009 35.9728 8.77521C36.089 8.50033 36.1488 8.20495 36.1488 7.90654C36.1488 7.60813 36.089 7.31275 35.9728 7.03786C35.8567 6.76298 35.6866 6.51418 35.4727 6.30616C35.2603 6.07899 35.002 5.89956 34.7151 5.77975C34.4281 5.65995 34.1189 5.60252 33.808 5.61125H30.9866V5.6123ZM41.7393 7.84326C42.9828 7.84326 43.9644 8.17556 44.6841 8.84017C45.4037 9.50477 45.7632 10.416 45.7625 11.5738V17.0965H44.1532V15.853H44.0801C43.3834 16.8771 42.4569 17.3891 41.3004 17.3891C40.3133 17.3891 39.4874 17.0965 38.8228 16.5113C38.5039 16.2427 38.2489 15.9064 38.0764 15.5267C37.9039 15.1471 37.8184 14.7338 37.8259 14.3169C37.8259 13.3896 38.1763 12.6522 38.8771 12.1047C39.578 11.5571 40.5136 11.2826 41.6839 11.2812C42.6829 11.2812 43.5057 11.4641 44.1522 11.8298V11.4453C44.1541 11.1611 44.0927 10.88 43.9725 10.6224C43.8523 10.3649 43.6763 10.1373 43.4573 9.9562C43.0124 9.5548 42.4325 9.33579 41.8334 9.3428C40.8936 9.3428 40.1499 9.73919 39.6024 10.532L38.1206 9.59882C38.9357 8.42845 40.1419 7.84326 41.7393 7.84326ZM39.5626 14.3534C39.5615 14.5676 39.6116 14.7789 39.7086 14.9697C39.8057 15.1606 39.947 15.3255 40.1207 15.4507C40.4928 15.7434 40.9546 15.8984 41.4279 15.8896C42.1379 15.8884 42.8184 15.6058 43.3204 15.1037C43.8777 14.5792 44.1564 13.9637 44.1564 13.2573C43.6318 12.8393 42.9003 12.6303 41.9619 12.6303C41.2785 12.6303 40.7086 12.795 40.2523 13.1246C39.7915 13.459 39.5626 13.8654 39.5626 14.3534ZM49.3824 21.0464L55.0001 8.13574H53.1683L50.5716 14.5728H50.535L47.8651 8.13574H46.0364L49.7304 16.529L47.6456 21.0464H49.3824Z" fill="white"/>
</svg>
