<svg width="64" height="24" viewBox="0 0 64 24" fill="none" xmlns="http://www.w3.org/2000/svg">
<path d="M35.8159 10.1558L34.3816 13.9619H35.2253L35.5253 13.1182H36.9502L37.2409 13.9619H38.1127L36.6878 10.1558H35.8159ZM35.7503 12.4909L36.2471 11.0941H36.2565L36.7346 12.4909H35.7503Z" fill="white"/>
<path d="M29.938 10.6152C29.7786 10.4652 29.6005 10.3434 29.3849 10.2684C29.1693 10.1934 28.9443 10.1559 28.7006 10.1559V10.1465H27.0779V13.9526H28.7184C29.0091 13.9526 29.2622 13.8964 29.4778 13.8026C29.6934 13.6995 29.8715 13.5682 30.0122 13.3995C30.1528 13.2307 30.2559 13.0245 30.3309 12.7901C30.3965 12.5558 30.434 12.3027 30.434 12.0214C30.434 11.7027 30.3871 11.4308 30.3028 11.1964C30.2099 10.9715 30.088 10.7746 29.938 10.6152ZM29.5153 12.6504C29.459 12.8004 29.384 12.9129 29.2997 13.0066C29.2153 13.1004 29.1122 13.166 28.9997 13.2035C28.8778 13.241 28.7653 13.2597 28.6435 13.2597V13.2691H27.9029V10.8692H28.5028C28.7091 10.8692 28.8778 10.8973 29.0184 10.9536C29.1591 11.0098 29.2716 11.1036 29.3559 11.2067C29.4403 11.3098 29.5059 11.4504 29.5434 11.6004C29.5809 11.7504 29.5997 11.9285 29.5997 12.116C29.5997 12.3316 29.5715 12.5004 29.5153 12.6504Z" fill="white"/>
<path d="M31.8129 12.3223H33.6597V11.6746H31.8129V10.859H33.819V10.1559V10.1465H30.9785V13.9535H33.8659V13.2504H31.8129V12.3223Z" fill="white"/>
<path d="M39.472 13.2596V10.1558H38.6377V13.9627H41.3282V13.2596H39.472Z" fill="white"/>
<path d="M32.3942 2H21.2C20.5344 2 20 2.53436 20 3.19996V21.4533C20 22.1189 20.5344 22.6532 21.2 22.6532H32.3942C39.8751 22.6532 44.0009 18.9784 44.0009 12.3028C44 3.34058 36.7253 2 32.3942 2ZM24.4623 20.8814H24.453C22.9811 20.8814 21.7999 19.6908 21.7999 18.2284V16.1566C21.7999 15.4254 22.3905 14.8254 23.1311 14.8254C23.8624 14.8254 24.4623 15.416 24.4623 16.1566V20.8814ZM23.1311 13.8129C22.163 13.8129 21.3781 13.028 21.3781 12.0599C21.3781 11.0917 22.163 10.3068 23.1311 10.3068C24.0993 10.3068 24.8842 11.0917 24.8842 12.0599C24.8842 13.028 24.0993 13.8129 23.1311 13.8129ZM33.191 20.8814H26.2623V4.96239C26.2623 4.30617 26.7966 3.76244 27.4622 3.76244H33.1902C39.4806 3.76244 42.2086 7.49356 42.2086 12.3028C42.2094 17.3284 39.4814 20.8814 33.191 20.8814Z" fill="white"/>
</svg>
