<svg width="64" height="24" viewBox="0 0 64 24" fill="none" xmlns="http://www.w3.org/2000/svg">
<path fill-rule="evenodd" clip-rule="evenodd" d="M7.7707 18.6873C11.7555 19.6083 15.7909 17.3607 16.7843 13.6677C17.7776 9.9744 15.3531 6.23329 11.3685 5.31256C7.38489 4.39182 3.34943 6.63959 2.35655 10.3331C1.36274 14.0259 3.78754 17.7666 7.7707 18.6873ZM11.2143 9.27804C12.2446 9.607 12.9981 10.1001 12.8501 11.0174C12.7429 11.6889 12.3413 12.014 11.8081 12.1279C12.5403 12.4812 12.9128 13.023 12.5579 13.9623C12.1175 15.1288 11.0712 15.2273 9.67968 14.9832L9.34198 16.2376L8.52597 16.0491L8.85925 14.8115C8.64775 14.7628 8.4316 14.7111 8.20895 14.6551L7.8745 15.8985L7.05942 15.71L7.39712 14.4532C7.32141 14.4353 7.24523 14.4169 7.16852 14.3983L7.16783 14.3981L7.16708 14.398C7.05114 14.3699 6.93397 14.3416 6.81538 14.3141L5.75347 14.0687L6.15857 13.2029C6.15857 13.2029 6.75984 13.3511 6.7517 13.3401C6.98272 13.3931 7.08521 13.2535 7.12565 13.1605L7.65929 11.1775C7.67931 11.1819 7.69891 11.1865 7.71783 11.1909L7.74551 11.1973C7.71298 11.1852 7.68345 11.1775 7.66068 11.1721L8.04137 9.7565C8.05137 9.59579 7.99164 9.39307 7.66114 9.3166C7.67393 9.30863 7.06849 9.18002 7.06849 9.18002L7.28556 8.37216L8.41092 8.63262L8.40999 8.6365C8.57919 8.67549 8.7535 8.71254 8.93107 8.75002L9.26551 7.50787L10.0811 7.69637L9.75335 8.91418C9.97229 8.9605 10.1926 9.00725 10.4071 9.05679L10.7325 7.84696L11.5485 8.03545L11.2143 9.27804ZM8.63322 13.7832C9.29906 13.9462 10.7543 14.3025 10.9856 13.4407C11.2227 12.5596 9.81138 12.2661 9.12272 12.1229L9.12266 12.1229C9.04573 12.1069 8.97782 12.0927 8.92224 12.0799L8.47413 13.7449C8.51961 13.7554 8.57289 13.7684 8.6325 13.783L8.63259 13.783L8.63308 13.7832L8.63322 13.7832ZM9.26108 11.3502C9.81621 11.4875 11.0271 11.787 11.238 11.0038C11.4534 10.2027 10.2765 9.96123 9.70177 9.84329L9.70172 9.84328C9.63708 9.83002 9.58006 9.81832 9.53349 9.80756L9.12722 11.3177C9.16555 11.3266 9.21052 11.3377 9.26089 11.3501L9.26094 11.3501L9.26108 11.3502ZM54.6201 12C54.6201 11.3579 54.7023 10.7829 54.8665 10.2752C55.0308 9.76748 55.266 9.34188 55.5721 8.99842C55.8857 8.64749 56.2665 8.38242 56.7145 8.20322C57.1625 8.01656 57.6702 7.92323 58.2377 7.92323C58.8425 7.92323 59.3689 8.02403 59.8169 8.22562C60.2723 8.41976 60.6494 8.69602 60.9481 9.05442C61.2542 9.41282 61.4819 9.84215 61.6313 10.3424C61.7881 10.8427 61.8665 11.3952 61.8665 12C61.8665 12.6421 61.7806 13.2171 61.6089 13.7248C61.4446 14.2325 61.2057 14.6618 60.8921 15.0128C60.5785 15.3562 60.1977 15.6213 59.7497 15.808C59.3017 15.9872 58.7977 16.0768 58.2377 16.0768C57.6329 16.0768 57.1028 15.9797 56.6473 15.7856C56.1993 15.584 55.8222 15.304 55.5161 14.9456C55.2174 14.5872 54.9935 14.1579 54.8441 13.6576C54.6948 13.1573 54.6201 12.6048 54.6201 12ZM56.3785 12C56.3785 12.3883 56.4158 12.7429 56.4905 13.064C56.5652 13.3851 56.6772 13.6613 56.8265 13.8928C56.9758 14.1243 57.1662 14.3035 57.3977 14.4304C57.6366 14.5573 57.9166 14.6208 58.2377 14.6208C58.8276 14.6208 59.2868 14.4192 59.6153 14.016C59.9438 13.6128 60.1081 12.9408 60.1081 12C60.1081 11.6267 60.0745 11.2795 60.0073 10.9584C59.9401 10.6373 59.8281 10.3611 59.6713 10.1296C59.522 9.89068 59.3278 9.70775 59.0889 9.58082C58.8574 9.44642 58.5737 9.37922 58.2377 9.37922C57.6553 9.37922 57.1998 9.58828 56.8713 10.0064C56.5428 10.4245 56.3785 11.0891 56.3785 12ZM51.9182 9.53602H54.4046V8.08003H47.7743V9.53602H50.2606V15.92H51.9182V9.53602ZM41.409 8.15843C41.745 8.09869 42.1184 8.05389 42.529 8.02403C42.9397 7.98669 43.3503 7.96803 43.761 7.96803C44.1791 7.96803 44.601 8.00163 45.0266 8.06883C45.4522 8.12856 45.833 8.25549 46.169 8.44962C46.5125 8.63629 46.7925 8.90135 47.009 9.24482C47.2255 9.58082 47.3338 10.0288 47.3338 10.5888C47.3338 11.0816 47.2404 11.5035 47.0538 11.8544C46.8671 12.1979 46.617 12.4779 46.3034 12.6944C45.9973 12.9109 45.6463 13.0715 45.2506 13.176C44.8549 13.2731 44.4479 13.3216 44.0298 13.3216H43.8394H43.5482C43.4511 13.3141 43.3578 13.3067 43.2682 13.2992C43.1786 13.2917 43.1114 13.2843 43.0666 13.2768V15.92H41.409V8.15843ZM43.873 9.42402C43.7162 9.42402 43.5631 9.42775 43.4138 9.43522C43.2719 9.44268 43.1562 9.45762 43.0666 9.48002V11.8096C43.0965 11.8171 43.145 11.8245 43.2122 11.832C43.2794 11.8395 43.3503 11.8469 43.425 11.8544C43.4997 11.8544 43.5669 11.8581 43.6266 11.8656H43.7834C43.9999 11.8656 44.2165 11.8507 44.433 11.8208C44.6495 11.7909 44.8399 11.7275 45.0042 11.6304C45.1759 11.5333 45.3141 11.4027 45.4186 11.2384C45.5231 11.0667 45.5754 10.8389 45.5754 10.5552C45.5754 10.3163 45.5269 10.1259 45.4298 9.98401C45.3327 9.83468 45.2021 9.71895 45.0378 9.63682C44.881 9.55468 44.6981 9.49868 44.489 9.46882C44.2874 9.43895 44.0821 9.42402 43.873 9.42402ZM33.3389 8.08003L36.1388 13.0304V15.92H37.7964V13.0192L40.5964 8.08003H38.8156L37.3036 10.936L37.1132 11.7984H37.0572L36.878 10.9584L35.3101 8.08003H33.3389ZM27.4039 8.15843C27.5831 8.12856 27.7772 8.10243 27.9863 8.08003C28.2028 8.05016 28.4193 8.02776 28.6359 8.01283C28.8524 7.99789 29.0615 7.98669 29.2631 7.97923C29.4721 7.97176 29.6625 7.96803 29.8343 7.96803C30.23 7.96803 30.6182 8.00163 30.999 8.06883C31.3873 8.13603 31.7308 8.25176 32.0294 8.41602C32.3356 8.58029 32.582 8.80802 32.7686 9.09922C32.9553 9.38295 33.0486 9.74135 33.0486 10.1744C33.0486 10.8165 32.8881 11.3467 32.567 11.7648C32.2534 12.1755 31.8166 12.4555 31.2566 12.6048L31.8502 12.952L33.8102 15.92H31.8838L29.9351 12.8848L29.0615 12.7504V15.92H27.4039V8.15843ZM29.9463 9.42402C29.7745 9.42402 29.6065 9.42775 29.4423 9.43522C29.2855 9.43522 29.1585 9.44642 29.0615 9.46882V11.6304H29.7671C30.2375 11.6304 30.607 11.5408 30.8758 11.3616C31.1521 11.1824 31.2902 10.8725 31.2902 10.432C31.2902 10.1035 31.1745 9.85335 30.943 9.68161C30.7116 9.50988 30.3793 9.42402 29.9463 9.42402ZM25.2712 15.9536C25.6744 15.8789 25.9992 15.7557 26.2456 15.584L25.9208 14.2624C25.7266 14.3669 25.5026 14.4528 25.2488 14.52C25.0024 14.5872 24.6962 14.6208 24.3304 14.6208C23.9346 14.6208 23.5874 14.5573 23.2888 14.4304C22.9901 14.3035 22.7437 14.1243 22.5496 13.8928C22.3554 13.6613 22.2098 13.3851 22.1128 13.064C22.0157 12.7429 21.9672 12.3883 21.9672 12C21.9672 11.5595 22.0194 11.1749 22.124 10.8464C22.236 10.5179 22.389 10.2453 22.5832 10.0288C22.7773 9.81228 23.0088 9.65175 23.2776 9.54722C23.5538 9.43522 23.86 9.37922 24.196 9.37922C24.5768 9.37922 24.8904 9.39788 25.1368 9.43522C25.3906 9.47255 25.6109 9.53228 25.7976 9.61442L26.1224 8.22562C25.9058 8.14349 25.6296 8.07256 25.2936 8.01283C24.965 7.95309 24.5581 7.92323 24.0728 7.92323C23.6322 7.92323 23.1842 7.99416 22.7288 8.13602C22.2733 8.27789 21.8589 8.50936 21.4856 8.83042C21.1123 9.14402 20.8061 9.56215 20.5672 10.0848C20.3283 10.6 20.2088 11.2384 20.2088 12C20.2088 12.7317 20.3133 13.3552 20.5224 13.8704C20.7315 14.3856 21.0115 14.8074 21.3624 15.136C21.7208 15.4645 22.1277 15.7034 22.5832 15.8528C23.0461 16.0021 23.5277 16.0768 24.028 16.0768C24.4536 16.0768 24.868 16.0357 25.2712 15.9536Z" fill="white"/>
</svg>
