<svg width="64" height="24" viewBox="0 0 64 24" fill="none" xmlns="http://www.w3.org/2000/svg">
<path d="M22.6455 23.8676V22.281C22.6548 22.1476 22.6355 22.0137 22.5889 21.8883C22.5424 21.7629 22.4697 21.6489 22.3756 21.5538C22.2815 21.4587 22.1682 21.3848 22.0433 21.3369C21.9184 21.2891 21.7848 21.2683 21.6513 21.2762C21.4765 21.2647 21.3018 21.3004 21.1455 21.3795C20.9893 21.4585 20.8571 21.5781 20.7628 21.7257C20.6768 21.5825 20.5538 21.4652 20.4067 21.3861C20.2597 21.307 20.094 21.269 19.9272 21.2762C19.7817 21.2688 19.6369 21.2996 19.507 21.3655C19.3771 21.4313 19.2667 21.53 19.1867 21.6517V21.3396H18.6367V23.8676H19.192V22.4767C19.1802 22.3903 19.1876 22.3023 19.2138 22.219C19.2399 22.1358 19.2841 22.0593 19.3433 21.9952C19.4024 21.931 19.4749 21.8807 19.5558 21.8478C19.6366 21.815 19.7237 21.8003 19.8108 21.805C20.1757 21.805 20.3608 22.043 20.3608 22.4714V23.8782H20.9161V22.4767C20.9048 22.3903 20.9126 22.3025 20.9389 22.2195C20.9652 22.1365 21.0095 22.0603 21.0685 21.9962C21.1275 21.9321 21.1999 21.8818 21.2804 21.8488C21.361 21.8158 21.4479 21.8008 21.5349 21.805C21.9104 21.805 22.0902 22.043 22.0902 22.4714V23.8782L22.6455 23.8676ZM30.8615 21.3396H29.9571V20.5728H29.4018V21.3396H28.8994V21.8421H29.4124V23.0056C29.4124 23.5926 29.6398 23.9417 30.2903 23.9417C30.5333 23.9425 30.7717 23.8747 30.9778 23.746L30.8192 23.2753C30.6717 23.3633 30.5043 23.4124 30.3326 23.4181C30.0682 23.4181 29.9677 23.2489 29.9677 22.995V21.8421H30.8668L30.8615 21.3396ZM35.5525 21.2762C35.4184 21.2722 35.2858 21.3045 35.1685 21.3697C35.0512 21.4349 34.9537 21.5304 34.8862 21.6464V21.3396H34.3414V23.8676H34.8915V22.4503C34.8915 22.0325 35.0713 21.7998 35.4203 21.7998C35.538 21.7981 35.6548 21.8197 35.7641 21.8632L35.9333 21.3344C35.8077 21.2894 35.6754 21.2662 35.542 21.2656L35.5525 21.2762ZM28.4604 21.5406C28.1491 21.3555 27.7911 21.2637 27.4291 21.2762C26.7892 21.2762 26.3714 21.5829 26.3714 22.0853C26.3714 22.4979 26.6781 22.7517 27.244 22.831L27.5085 22.8681C27.8099 22.9104 27.9527 22.9897 27.9527 23.1325C27.9527 23.3282 27.7517 23.4392 27.3763 23.4392C27.0742 23.448 26.778 23.3548 26.5354 23.1748L26.2709 23.6032C26.5913 23.8269 26.9751 23.9418 27.3657 23.9311C28.0955 23.9311 28.5186 23.5873 28.5186 23.1061C28.5186 22.6248 28.1854 22.4291 27.6354 22.3498L27.371 22.3128C27.133 22.281 26.9426 22.2334 26.9426 22.0642C26.9426 21.895 27.1224 21.768 27.4238 21.768C27.7025 21.7713 27.9756 21.8459 28.2171 21.9849L28.4604 21.5406ZM43.192 21.2762C43.0579 21.2722 42.9252 21.3045 42.808 21.3697C42.6907 21.4349 42.5932 21.5304 42.5257 21.6464V21.3396H41.9809V23.8676H42.5309V22.4503C42.5309 22.0325 42.7108 21.7998 43.0598 21.7998C43.1775 21.7981 43.2943 21.8197 43.4036 21.8632L43.5728 21.3344C43.4472 21.2894 43.3149 21.2662 43.1814 21.2656L43.192 21.2762ZM36.1052 22.5983C36.0987 22.776 36.1293 22.9531 36.1951 23.1182C36.2609 23.2833 36.3605 23.4329 36.4874 23.5574C36.6144 23.6818 36.7659 23.7784 36.9323 23.8409C37.0987 23.9035 37.2763 23.9306 37.4538 23.9205C37.7841 23.9373 38.1086 23.8298 38.3635 23.6191L38.099 23.1748C37.9089 23.3198 37.677 23.3996 37.438 23.4022C37.2346 23.3858 37.045 23.2934 36.9067 23.1435C36.7684 22.9935 36.6916 22.797 36.6916 22.5931C36.6916 22.3891 36.7684 22.1926 36.9067 22.0427C37.045 21.8927 37.2346 21.8003 37.438 21.7839C37.677 21.7866 37.9089 21.8663 38.099 22.0113L38.3635 21.5671C38.1086 21.3564 37.7841 21.2488 37.4538 21.2656C37.2763 21.2555 37.0987 21.2826 36.9323 21.3452C36.7659 21.4077 36.6144 21.5043 36.4874 21.6287C36.3605 21.7532 36.2609 21.9028 36.1951 22.0679C36.1293 22.2331 36.0987 22.4101 36.1052 22.5878V22.5983ZM41.2564 22.5983V21.3396H40.7064V21.6464C40.6129 21.5262 40.4923 21.43 40.3544 21.3656C40.2164 21.3012 40.0652 21.2706 39.913 21.2762C39.5624 21.2762 39.2261 21.4155 38.9781 21.6634C38.7302 21.9114 38.5909 22.2477 38.5909 22.5983C38.5909 22.949 38.7302 23.2853 38.9781 23.5333C39.2261 23.7812 39.5624 23.9205 39.913 23.9205C40.0652 23.9261 40.2164 23.8955 40.3544 23.8311C40.4923 23.7667 40.6129 23.6705 40.7064 23.5503V23.8571H41.2564V22.5983ZM39.2097 22.5983C39.2184 22.4495 39.2705 22.3066 39.3595 22.187C39.4485 22.0674 39.5706 21.9765 39.7106 21.9254C39.8506 21.8743 40.0026 21.8653 40.1477 21.8994C40.2928 21.9336 40.4247 22.0094 40.5272 22.1176C40.6298 22.2258 40.6984 22.3616 40.7247 22.5084C40.7511 22.6551 40.7339 22.8063 40.6754 22.9434C40.6168 23.0805 40.5195 23.1975 40.3953 23.2799C40.2712 23.3624 40.1256 23.4067 39.9765 23.4075C39.8718 23.4088 39.768 23.3885 39.6715 23.3477C39.5751 23.307 39.4881 23.2467 39.4161 23.1707C39.344 23.0947 39.2885 23.0046 39.253 22.9061C39.2175 22.8076 39.2027 22.7028 39.2097 22.5983ZM32.5724 21.2762C32.2217 21.2811 31.8874 21.4251 31.6429 21.6765C31.3984 21.9279 31.2638 22.2662 31.2687 22.6169C31.2736 22.9675 31.4176 23.3019 31.6691 23.5463C31.9205 23.7908 32.2587 23.9254 32.6094 23.9205C32.9898 23.94 33.364 23.8175 33.6592 23.5768L33.3948 23.1695C33.186 23.337 32.9273 23.43 32.6596 23.434C32.4778 23.4496 32.2971 23.3937 32.1559 23.2781C32.0146 23.1626 31.924 22.9965 31.9034 22.8152H33.7808C33.7808 22.7464 33.7808 22.6777 33.7808 22.6036C33.7808 21.8103 33.289 21.2815 32.5803 21.2815L32.5724 21.2762ZM32.5724 21.768C32.6547 21.7663 32.7365 21.7807 32.8132 21.8106C32.8899 21.8405 32.96 21.8852 33.0194 21.9422C33.0789 21.9992 33.1265 22.0673 33.1596 22.1427C33.1927 22.218 33.2106 22.2992 33.2123 22.3815H31.8901C31.8997 22.2118 31.9754 22.0525 32.1009 21.9378C32.2264 21.8232 32.3919 21.7622 32.5618 21.768H32.5724ZM46.352 22.6036V20.3242H45.8231V21.6464C45.7297 21.5262 45.6091 21.43 45.4712 21.3656C45.3332 21.3012 45.182 21.2706 45.0298 21.2762C44.6792 21.2762 44.3429 21.4155 44.0949 21.6634C43.847 21.9114 43.7077 22.2477 43.7077 22.5983C43.7077 22.949 43.847 23.2853 44.0949 23.5333C44.3429 23.7812 44.6792 23.9205 45.0298 23.9205C45.182 23.9261 45.3332 23.8955 45.4712 23.8311C45.6091 23.7667 45.7297 23.6705 45.8231 23.5503V23.8571H46.352V22.6036ZM47.2696 23.5001C47.304 23.4996 47.3381 23.5059 47.3701 23.5186C47.4004 23.531 47.4282 23.5489 47.4521 23.5715C47.4753 23.5943 47.4941 23.6212 47.5076 23.6508C47.521 23.6817 47.5279 23.715 47.5279 23.7486C47.5279 23.7823 47.521 23.8156 47.5076 23.8465C47.4941 23.8761 47.4753 23.903 47.4521 23.9258C47.4282 23.9484 47.4004 23.9663 47.3701 23.9787C47.3384 23.9927 47.3042 23.9999 47.2696 23.9998C47.2195 23.9995 47.1705 23.9849 47.1283 23.9577C47.0862 23.9305 47.0527 23.892 47.0316 23.8465C47.0184 23.8156 47.0115 23.7823 47.0115 23.7486C47.0115 23.715 47.0184 23.6817 47.0316 23.6508C47.0451 23.6212 47.0639 23.5943 47.0871 23.5715C47.1109 23.5489 47.1387 23.531 47.1691 23.5186C47.2036 23.5049 47.2405 23.4986 47.2775 23.5001H47.2696ZM47.2696 23.947C47.296 23.9471 47.3221 23.9417 47.3463 23.9311C47.369 23.9209 47.3897 23.9066 47.4071 23.8888C47.4402 23.8527 47.4585 23.8055 47.4585 23.7566C47.4585 23.7076 47.4402 23.6604 47.4071 23.6243C47.3897 23.6065 47.3691 23.5921 47.3463 23.582C47.3221 23.5715 47.296 23.5661 47.2696 23.5662C47.2432 23.5663 47.2172 23.5717 47.1929 23.582C47.1691 23.5918 47.1476 23.6062 47.1294 23.6243C47.0964 23.6604 47.078 23.7076 47.078 23.7566C47.078 23.8055 47.0964 23.8527 47.1294 23.8888C47.1476 23.9069 47.1692 23.9213 47.1929 23.9311C47.2196 23.9426 47.2485 23.948 47.2775 23.947H47.2696ZM47.2855 23.6323C47.3101 23.6311 47.3345 23.6386 47.3542 23.6534C47.3623 23.6601 47.3687 23.6687 47.3728 23.6783C47.377 23.688 47.3787 23.6985 47.378 23.709C47.3784 23.7178 47.3769 23.7265 47.3738 23.7347C47.3706 23.7429 47.3657 23.7503 47.3595 23.7566C47.3442 23.7705 47.3246 23.7789 47.304 23.7804L47.3807 23.8676H47.3198L47.2484 23.7804H47.2246V23.8676H47.1744V23.6349L47.2855 23.6323ZM47.2273 23.6772V23.7407H47.2855C47.2958 23.7438 47.3068 23.7438 47.3172 23.7407C47.319 23.737 47.32 23.7329 47.32 23.7288C47.32 23.7247 47.319 23.7206 47.3172 23.7169C47.319 23.7132 47.32 23.7091 47.32 23.705C47.32 23.7009 47.319 23.6968 47.3172 23.6931C47.3068 23.69 47.2958 23.69 47.2855 23.6931L47.2273 23.6772ZM44.3185 22.6036C44.3273 22.4548 44.3794 22.3118 44.4684 22.1923C44.5574 22.0727 44.6794 21.9818 44.8195 21.9307C44.9595 21.8796 45.1114 21.8706 45.2565 21.9047C45.4016 21.9389 45.5336 22.0147 45.6361 22.1229C45.7386 22.2311 45.8073 22.3669 45.8336 22.5137C45.8599 22.6604 45.8428 22.8116 45.7842 22.9487C45.7257 23.0858 45.6284 23.2027 45.5042 23.2852C45.38 23.3677 45.2344 23.412 45.0854 23.4128C44.9807 23.4141 44.8768 23.3938 44.7804 23.353C44.6839 23.3123 44.5969 23.252 44.5249 23.176C44.4529 23.1 44.3974 23.0099 44.3619 22.9114C44.3263 22.8129 44.3116 22.7081 44.3185 22.6036ZM25.7473 22.6036V21.3396H25.1973V21.6464C25.1039 21.5262 24.9833 21.43 24.8453 21.3656C24.7074 21.3012 24.5561 21.2706 24.404 21.2762C24.0534 21.2762 23.7171 21.4155 23.4691 21.6634C23.2211 21.9114 23.0818 22.2477 23.0818 22.5983C23.0818 22.949 23.2211 23.2853 23.4691 23.5333C23.7171 23.7812 24.0534 23.9205 24.404 23.9205C24.5561 23.9261 24.7074 23.8955 24.8453 23.8311C24.9833 23.7667 25.1039 23.6705 25.1973 23.5503V23.8571H25.7473V22.6036ZM23.7006 22.6036C23.7094 22.4548 23.7615 22.3118 23.8505 22.1923C23.9395 22.0727 24.0615 21.9818 24.2016 21.9307C24.3416 21.8796 24.4935 21.8706 24.6386 21.9047C24.7837 21.9389 24.9157 22.0147 25.0182 22.1229C25.1207 22.2311 25.1894 22.3669 25.2157 22.5137C25.242 22.6604 25.2249 22.8116 25.1663 22.9487C25.1078 23.0858 25.0105 23.2027 24.8863 23.2852C24.7621 23.3677 24.6165 23.412 24.4675 23.4128C24.3623 23.4149 24.2579 23.3951 24.1608 23.3546C24.0638 23.3142 23.9761 23.254 23.9035 23.178C23.8309 23.1019 23.7749 23.0115 23.7391 22.9127C23.7033 22.8138 23.6884 22.7086 23.6953 22.6036H23.7006Z" fill="white"/>
<path fill-rule="evenodd" clip-rule="evenodd" d="M46.3547 14.5727C47.3025 13.0586 47.8051 11.3083 47.8051 9.52204V9.5194C47.8051 7.73309 47.3025 5.98284 46.3547 4.46871C45.4069 2.95458 44.0522 1.73766 42.4455 0.957061C40.8388 0.17646 39.0449 -0.136327 37.2688 0.0544553C35.4927 0.245237 33.8061 0.931889 32.4019 2.03592C33.5353 2.92668 34.4516 4.06323 35.0817 5.35981C35.7118 6.65639 36.0392 8.07914 36.0392 9.52072C36.0392 10.9623 35.7118 12.385 35.0817 13.6816C34.4516 14.9782 33.5353 16.1147 32.4019 17.0055C33.8061 18.1095 35.4927 18.7962 37.2688 18.987C39.0449 19.1778 40.8388 18.865 42.4455 18.0844C44.0522 17.3038 45.4069 16.0869 46.3547 14.5727ZM29.7209 5.35983C29.0909 6.65682 28.7644 8.08016 28.7659 9.52204C28.7648 10.9635 29.0915 12.3863 29.7215 13.6828C30.3514 14.9793 31.268 16.1155 32.4019 17.0055C30.9975 18.1092 29.3109 18.7955 27.5349 18.986C25.759 19.1765 23.9652 18.8635 22.3587 18.0828C20.7522 17.3021 19.3977 16.0852 18.4501 14.5711C17.5025 13.057 17 11.3069 17 9.52072C17 7.73455 17.5025 5.98441 18.4501 4.47033C19.3977 2.95625 20.7522 1.73931 22.3587 0.9586C23.9652 0.177888 25.759 -0.1351 27.5349 0.0554084C29.3109 0.245917 30.9975 0.932235 32.4019 2.03592C31.2676 2.92617 30.3508 4.06283 29.7209 5.35983Z" fill="white"/>
<path d="M34.9815 9.51941C34.9815 12.5863 32.3372 15.0725 32.3372 15.0725C32.3372 15.0725 29.6929 12.5863 29.6929 9.51941C29.6929 6.45252 32.3372 3.96631 32.3372 3.96631C32.3372 3.96631 34.9815 6.45252 34.9815 9.51941Z" fill="white"/>
</svg>
