<svg width="64" height="24" fill="none" xmlns="http://www.w3.org/2000/svg"><path d="M23.93 7.495h-3.54a.492.492 0 00-.487.415l-1.432 9.082a.295.295 0 00.291.34h1.691a.492.492 0 00.487-.415l.386-2.45a.492.492 0 01.486-.415h1.12c2.334 0 3.68-1.13 4.032-3.366.158-.98.007-1.748-.452-2.287-.503-.591-1.396-.904-2.581-.904zm.41 3.317c-.194 1.27-1.165 1.27-2.104 1.27H21.7l.375-2.373a.295.295 0 01.292-.249h.245c.64 0 1.243 0 1.554.365.186.217.243.54.172.987zm10.177-.041h-1.696a.295.295 0 00-.291.25l-.075.473-.119-.171c-.367-.533-1.186-.712-2.003-.712-1.874 0-3.475 1.42-3.786 3.411-.163.993.068 1.943.631 2.606.517.608 1.257.862 2.136.862 1.51 0 2.348-.97 2.348-.97l-.076.47a.295.295 0 00.291.342h1.528a.493.493 0 00.486-.416l.917-5.804a.295.295 0 00-.29-.341zm-2.364 3.3c-.163.97-.932 1.62-1.913 1.62-.493 0-.886-.158-1.139-.457-.25-.297-.346-.72-.266-1.192.153-.96.935-1.632 1.9-1.632.482 0 .873.16 1.131.462.259.305.361.73.287 1.2zm11.397-3.3h-1.704a.495.495 0 00-.408.216l-2.35 3.462-.997-3.327a.493.493 0 00-.472-.351h-1.675a.296.296 0 00-.28.39l1.877 5.51-1.765 2.49a.295.295 0 00.241.467h1.702a.491.491 0 00.405-.211l5.668-8.183a.296.296 0 00-.242-.463zM49.192 7.495H45.65a.492.492 0 00-.486.415l-1.432 9.082a.295.295 0 00.291.34h1.818a.344.344 0 00.34-.29l.406-2.575a.492.492 0 01.486-.415h1.12c2.334 0 3.68-1.13 4.032-3.366.159-.98.006-1.748-.452-2.287-.503-.591-1.395-.904-2.58-.904zm.409 3.317c-.193 1.27-1.164 1.27-2.104 1.27h-.533l.375-2.373a.294.294 0 01.291-.249h.245c.639 0 1.243 0 1.555.365.185.217.242.54.171.987zm10.177-.041h-1.694a.293.293 0 00-.292.25l-.075.473-.119-.171c-.367-.533-1.185-.712-2.002-.712-1.874 0-3.475 1.42-3.786 3.411-.162.993.067 1.943.63 2.606.519.608 1.257.862 2.137.862 1.51 0 2.348-.97 2.348-.97l-.076.47a.297.297 0 00.168.315.296.296 0 00.124.027h1.527a.492.492 0 00.486-.416l.917-5.804a.296.296 0 00-.293-.341zm-2.364 3.3c-.162.97-.932 1.62-1.913 1.62-.491 0-.886-.158-1.139-.457-.25-.297-.345-.72-.266-1.192.154-.96.935-1.632 1.9-1.632.482 0 .874.16 1.131.462.26.305.362.73.287 1.2zm4.364-6.327l-1.454 9.248a.294.294 0 00.291.34h1.462a.491.491 0 00.486-.415l1.433-9.081a.295.295 0 00-.29-.341h-1.637a.296.296 0 00-.291.25zM11.936 7.97a8.35 8.35 0 01-.05.285c-.64 3.29-2.832 4.425-5.631 4.425H4.83a.692.692 0 00-.685.587l-.73 4.627-.206 1.312a.364.364 0 00.36.421h2.528c.3 0 .553-.217.6-.512l.025-.129.476-3.02.03-.166a.608.608 0 01.602-.513h.378c2.448 0 4.366-.995 4.926-3.872.234-1.202.113-2.205-.507-2.911-.196-.219-.43-.4-.691-.534z" fill="#fff"/><path d="M4.979 7.987a.605.605 0 01.6-.513h3.807c.451 0 .872.03 1.257.091.26.041.516.102.766.183.19.063.365.137.527.222.19-1.215-.001-2.043-.659-2.792C10.553 4.353 9.245 4 7.572 4H2.715a.694.694 0 00-.687.587L.005 17.412a.417.417 0 00.412.482h2.999l.753-4.777.81-5.13z" fill="#fff"/><path d="M5.836 8.328c-.22.248-.22.978-.657 3.699 1.314-.247 1.613.076 3.366-.518 2.19-.742 2.33-2.686 2.33-3.18-.777-.186-4.82-.248-5.04 0z" fill="#fff"/></svg>