<svg width="64" height="24" viewBox="0 0 64 24" fill="none" xmlns="http://www.w3.org/2000/svg">
<path d="M33.2032 12.0322C33.104 11.6924 32.9562 11.3691 32.7635 11.0701C32.4338 10.5591 31.9749 10.133 31.4361 9.83755C30.5853 9.37365 29.5705 9.26446 28.6355 9.53638C27.692 9.81115 26.9127 10.4392 26.4409 11.3028C25.9713 12.1628 25.8635 13.1541 26.1362 14.0947L26.139 14.104C26.2018 14.3138 26.3025 14.5815 26.3046 14.5857C26.6179 15.3187 27.1418 15.8782 27.9068 16.2957C28.4471 16.5912 29.0552 16.7475 29.6654 16.7475C30.0158 16.7475 30.3662 16.6968 30.7067 16.5969C31.4261 16.3871 32.0534 15.9717 32.5273 15.3886L32.5573 15.3515C32.6779 15.1988 32.7878 15.0354 32.8827 14.8655C33.0519 14.5636 32.9434 14.1811 32.6415 14.0119C32.548 13.9598 32.4424 13.932 32.336 13.932C32.1091 13.932 31.8992 14.0548 31.7886 14.2532C31.6337 14.5301 31.4289 14.7706 31.1791 14.9676C31.1577 14.9847 31.137 15.0033 31.1263 15.0161C30.8965 15.1867 30.6374 15.3159 30.3562 15.3986C29.7417 15.5792 29.0716 15.5071 28.5063 15.1995C28.1338 14.9961 27.8219 14.6949 27.6007 14.3252L32.7806 12.8051C33.1097 12.7087 33.2995 12.3619 33.2032 12.0322ZM29.6761 10.6333C30.0765 10.6333 30.4783 10.7368 30.8373 10.9324C31.1913 11.1258 31.4946 11.407 31.7144 11.7453C31.7265 11.7645 31.7387 11.7845 31.7508 11.8045L27.241 13.1277C27.2296 12.7016 27.3316 12.2791 27.5393 11.9001C27.8498 11.3306 28.3643 10.9167 28.9874 10.7332C29.2136 10.6676 29.4449 10.6333 29.6761 10.6333Z" fill="white"/>
<path d="M39.8519 15.558H36.4247L40.2572 9.9277C40.3293 9.82136 40.3372 9.68433 40.2772 9.57085C40.2173 9.45737 40.0995 9.38672 39.971 9.38672H35.098C34.7747 9.38672 34.5113 9.65007 34.5113 9.97337C34.5113 10.2967 34.7747 10.56 35.098 10.56H38.3638L34.5327 16.1903C34.4606 16.2974 34.4528 16.4337 34.5127 16.5472C34.5727 16.6607 34.6904 16.7313 34.8189 16.7313H39.8519C40.1752 16.7313 40.4385 16.468 40.4385 16.1447C40.4385 15.8214 40.1752 15.558 39.8519 15.558Z" fill="white"/>
<path d="M47.4439 15.5577H44.0175L47.85 9.92743C47.9228 9.82109 47.9299 9.68478 47.87 9.56987C47.81 9.4564 47.6923 9.38574 47.5638 9.38574H42.6914C42.3681 9.38574 42.1048 9.64909 42.1048 9.9724C42.1048 10.2957 42.3681 10.5591 42.6914 10.5591H45.9566L42.1255 16.1894C42.0534 16.2957 42.0456 16.4327 42.1055 16.5462C42.1655 16.6597 42.2832 16.7303 42.4117 16.7303H47.4446C47.7679 16.7303 48.0313 16.467 48.0313 16.1437C48.0306 15.8211 47.7672 15.5577 47.4439 15.5577Z" fill="white"/>
<path d="M50.8276 6.20996C50.5043 6.20996 50.241 6.47331 50.241 6.79662V16.1652C50.241 16.4885 50.5043 16.7519 50.8276 16.7519C51.1509 16.7519 51.4143 16.4885 51.4143 16.1652V6.79733C51.4143 6.47331 51.1509 6.20996 50.8276 6.20996Z" fill="white"/>
<path d="M60.4517 12.0322C60.3532 11.6932 60.2055 11.3691 60.0121 11.0701C59.6823 10.5591 59.2234 10.133 58.6846 9.83755C57.8339 9.37365 56.819 9.26446 55.8841 9.53638C54.9406 9.81115 54.1612 10.4392 53.6895 11.3028C53.2199 12.1628 53.1121 13.1541 53.3847 14.0947L53.3876 14.1047C53.4504 14.3138 53.551 14.5815 53.5531 14.5865C53.8665 15.3194 54.3903 15.8782 55.1554 16.2965C55.6956 16.5919 56.3037 16.7482 56.9139 16.7482C57.2643 16.7482 57.6141 16.6976 57.9552 16.5976C58.6746 16.3878 59.3019 15.9724 59.7751 15.3901L59.8058 15.3508C59.9271 15.1974 60.0356 15.0347 60.1305 14.8662C60.299 14.5643 60.1912 14.1818 59.8893 14.0127C59.7958 13.9606 59.6902 13.9327 59.5838 13.9327C59.3569 13.9327 59.1471 14.0555 59.0364 14.2539C58.8816 14.5308 58.6767 14.7713 58.4277 14.9683C58.4055 14.9854 58.3856 15.004 58.3741 15.0168C58.1443 15.1874 57.8853 15.3166 57.6041 15.3994C56.9903 15.5799 56.3194 15.5078 55.7549 15.2002C55.3816 14.9968 55.0705 14.6957 54.8492 14.326L60.0292 12.8058C60.3582 12.7087 60.548 12.3619 60.4517 12.0322ZM56.9246 10.6333C57.325 10.6333 57.7268 10.7368 58.0858 10.9324C58.4398 11.1258 58.7431 11.407 58.9629 11.7453C58.9751 11.7645 58.9879 11.7845 58.9993 11.8045L54.4895 13.1277C54.4781 12.7016 54.5809 12.2791 54.7878 11.9001C55.0983 11.3306 55.6129 10.9167 56.2359 10.7332C56.4622 10.6676 56.6941 10.6333 56.9246 10.6333Z" fill="white"/>
<path d="M24.1705 13.469C23.9964 13.2142 23.7451 13.0022 23.424 12.8388C22.8987 12.5712 22.2178 12.4491 21.5648 12.3471L21.4613 12.3314C21.0031 12.26 20.5285 12.1865 20.2245 12.0323C19.994 11.916 19.9119 11.784 19.9119 11.5285C19.9119 11.0332 20.4514 10.6592 21.1666 10.6592C22.0201 10.6592 22.4969 10.9083 23.0307 11.2344C23.1299 11.2951 23.2441 11.3265 23.3597 11.3265C23.5824 11.3265 23.7844 11.2137 23.9 11.0239C23.9878 10.8797 24.0149 10.7099 23.9749 10.5457C23.935 10.3816 23.8336 10.2431 23.6895 10.1553C23.3933 9.97476 23.07 9.78635 22.6618 9.63933C22.2021 9.47446 21.7133 9.39453 21.1666 9.39453C20.5078 9.39453 19.8919 9.59436 19.4316 9.95835C18.9263 10.3573 18.6479 10.9147 18.6479 11.5278C18.6479 12.2621 18.9955 12.8267 19.6535 13.1593C20.1367 13.4041 20.7112 13.4925 21.2665 13.5789L21.3685 13.5946C22.7931 13.818 23.2049 14.0185 23.2049 14.4896C23.2049 15.0734 22.6204 15.4552 21.7154 15.4631H21.6826C20.7119 15.4631 20.1674 15.0898 19.8748 14.89C19.8263 14.8571 19.7849 14.8286 19.7435 14.8029C19.6428 14.7401 19.5279 14.7073 19.4095 14.7073C19.1896 14.7073 18.9891 14.8186 18.8728 15.0049C18.6886 15.3003 18.7793 15.6914 19.0747 15.8756C19.0912 15.8856 19.1161 15.9027 19.144 15.922L19.1611 15.9334C19.5079 16.171 20.3208 16.7277 21.6833 16.7277H21.7268C22.5119 16.7206 23.187 16.5093 23.678 16.1161C24.1876 15.7078 24.4688 15.1305 24.4688 14.4896C24.4702 14.1028 24.3696 13.7595 24.1705 13.469Z" fill="white"/>
<path d="M9.24375 9.23686C10.3671 8.10994 10.4884 6.30501 9.52637 5.03964L9.41575 4.89404L4.45345 9.87418C3.33082 11.0018 3.20949 12.806 4.17155 14.0721L4.28217 14.2177L9.11243 9.3696L9.24375 9.23686Z" fill="white"/>
<path d="M9.12881 14.2592C9.32436 14.0358 9.25013 13.3078 9.04459 12.0432L9.04245 12.0296C8.9668 11.5621 8.89543 11.1204 8.8626 10.7278L8.83405 10.3853L4.65039 14.5846L4.79598 14.6945C5.34481 15.1085 6.0007 15.3304 6.69298 15.3368C7.56297 15.3447 8.37943 15.0107 8.99249 14.3962L9.12881 14.2592Z" fill="white"/>
<path d="M14.4337 9.92831L14.323 9.78271L9.36075 14.7636C8.75696 15.3702 8.4251 16.1745 8.42652 17.0303C8.42795 17.7361 8.65276 18.4034 9.07741 18.9608L9.18803 19.1057L14.1503 14.1248C15.2737 12.9986 15.3957 11.1937 14.4337 9.92831Z" fill="white"/>
<path d="M9.47486 9.7429C9.28002 9.96557 9.35424 10.6935 9.55907 11.9582L9.5605 11.9696C9.63615 12.4378 9.70752 12.8803 9.74106 13.2735L9.76961 13.6154L13.9526 9.41674L13.807 9.30684C13.2588 8.89218 12.603 8.66951 11.9107 8.66309H11.8736C11.6095 8.6638 11.3469 8.69592 11.0928 8.76015C10.534 8.90075 10.0215 9.19265 9.60974 9.60516L9.47486 9.7429Z" fill="white"/>
</svg>
