<svg width="64" height="24" viewBox="0 0 64 24" fill="none" xmlns="http://www.w3.org/2000/svg">
<path fill-rule="evenodd" clip-rule="evenodd" d="M40.7321 8.28242C41.6389 8.28242 42.3739 7.54776 42.3739 6.64183C42.3739 5.73536 41.6389 5 40.7321 5C39.8264 5 39.0917 5.73536 39.0917 6.64183C39.0917 7.54776 39.8264 8.28242 40.7321 8.28242ZM28.1579 9.16842C28.0838 9.35451 27.5506 10.8607 26.261 12.4217V5.74701L22.825 6.4261V18.5248H26.261V14.785C27.2562 16.2776 27.7476 18.5248 27.7476 18.5248H31.8633C31.4562 16.8323 29.6754 13.7117 29.6754 13.7117C31.2736 11.6853 31.9757 9.52613 32.0873 9.16842H28.1579ZM37.1911 9.04212C34.1135 9.1409 32.5512 10.5217 32.5512 13.2665V18.5248H35.9088V14.2368C35.9088 12.5932 36.124 11.8887 38.0743 11.8215V9.09028C37.746 9.0206 37.1911 9.04212 37.1911 9.04212ZM17.0624 10.5007C16.6415 10.473 15.6671 10.41 15.6671 9.53284C15.6671 8.47433 17.0699 8.47433 17.5961 8.47433C18.5213 8.47433 19.7195 8.74773 20.5751 9.00367C20.5751 9.00367 21.0524 9.17194 21.4587 9.34428L21.4964 9.35451V6.45556L21.4446 6.44021C20.4347 6.08691 19.2605 5.74701 17.0835 5.74701C13.33 5.74701 12 7.9337 12 9.80694C12 10.8868 12.4628 13.4282 16.7616 13.7214C17.126 13.7438 18.0932 13.7995 18.0932 14.706C18.0932 15.4544 17.3014 15.8957 15.9696 15.8957C14.5102 15.8957 13.0945 15.5235 12.2346 15.1706V18.1563C13.5219 18.4937 14.973 18.6624 16.6738 18.6624C20.3439 18.6624 21.9877 16.5935 21.9877 14.543C21.9877 12.218 20.1483 10.7074 17.0624 10.5007ZM39.0677 18.5248H42.3981V9.179H39.0677V18.5248ZM48.6691 6.34285V18.5248H52V5.74701L48.6691 6.34285ZM43.8089 6.34285L47.1366 5.74701V18.5248H43.8089V6.34285Z" fill="white"/>
</svg>
