<svg width="64" height="24" viewBox="0 0 64 24" fill="none" xmlns="http://www.w3.org/2000/svg">
<path d="M28.7666 18.0485H25.4453L27.5227 5.20361H30.8438L28.7666 18.0485Z" fill="white"/>
<path d="M40.8064 5.51756C40.1513 5.25766 39.1123 4.9707 37.8275 4.9707C34.5476 4.9707 32.238 6.7197 32.2238 9.22024C32.1966 11.0651 33.8775 12.0898 35.1346 12.705C36.4196 13.3336 36.8564 13.7438 36.8564 14.3041C36.8433 15.1647 35.8181 15.5613 34.8618 15.5613C33.5358 15.5613 32.8253 15.3568 31.7456 14.8781L31.3083 14.6728L30.8435 17.5562C31.6225 17.9111 33.0576 18.226 34.5476 18.2398C38.0326 18.2398 40.3014 16.5179 40.3282 13.8532C40.3415 12.391 39.4539 11.2705 37.5404 10.355C36.3787 9.76728 35.6673 9.37099 35.6673 8.76964C35.681 8.22297 36.269 7.66304 37.5803 7.66304C38.6601 7.63561 39.4534 7.89515 40.0544 8.15486L40.3548 8.29126L40.8064 5.51756Z" fill="white"/>
<path d="M45.2208 13.498C45.4944 12.7601 46.5468 9.90412 46.5468 9.90412C46.533 9.93154 46.8198 9.15257 46.9838 8.67437L47.2159 9.78116C47.2159 9.78116 47.8449 12.8558 47.9815 13.498C47.4624 13.498 45.8769 13.498 45.2208 13.498ZM49.3205 5.20361H46.7515C45.9593 5.20361 45.3574 5.43572 45.0156 6.26936L40.0823 18.0483H43.5672C43.5672 18.0483 44.1409 16.463 44.2643 16.1215C44.6466 16.1215 48.0367 16.1215 48.5285 16.1215C48.6239 16.5725 48.9248 18.0483 48.9248 18.0483H52L49.3205 5.20361Z" fill="white"/>
<path d="M22.6713 5.20361L19.4187 13.9626C18.8173 11.9128 17.0301 8.92512 14.9255 7.81778L17.4506 18.0349H20.9628L26.1833 5.20361H22.6713Z" fill="white"/>
<path d="M16.3983 5.20361H11.0547L11 5.46315C15.1684 6.52907 17.929 9.09845 19.0632 12.1867L17.9016 6.28334C17.7103 5.46297 17.1226 5.23067 16.3983 5.20361Z" fill="white"/>
</svg>
