<svg width="1136" height="1165" viewBox="0 0 1136 1165" fill="none" xmlns="http://www.w3.org/2000/svg">
<path d="M899.471 976.934L893.719 986.992C890.219 993.113 888.378 1000.04 888.378 1007.09V1015.32C888.378 1022.34 885.203 1028.99 879.739 1033.41C874.27 1037.83 867.096 1039.54 860.222 1038.06L845.448 1034.88C832.971 1032.19 819.95 1033.94 808.622 1039.82L701.417 1095.46C689.996 1101.38 682.092 1112.41 680.144 1125.12C677.81 1140.36 666.99 1152.93 652.271 1157.51L640.565 1161.15C634.489 1163.03 628.135 1163.87 621.778 1163.61L573.772 1161.66C560.741 1161.14 549.566 1152.2 546.189 1139.6C543.305 1128.84 534.661 1120.59 523.78 1118.2L121.419 1030.02C107.797 1027.04 93.5472 1029.7 81.9187 1037.39L79.7308 1038.84C69.8929 1045.35 57.8966 1047.75 46.3108 1045.53C32.9564 1042.96 21.47 1034.51 15.0448 1022.53L7.60811 1008.66C3.27007 1000.57 1 991.528 1 982.347V714.465C1 692.968 13.374 673.391 32.7918 664.167L239.273 566.083C244.801 563.456 250.725 561.76 256.805 561.06L260.735 560.609C296.034 556.55 317.344 519.504 303.106 486.95C298.51 476.442 297.458 464.724 300.11 453.565L382.252 107.872C386.037 91.9438 396.639 78.4885 411.239 71.0829L438.979 57.0127C448.717 52.0737 459.691 50.1063 470.538 51.3552L620.824 68.6589C632.337 69.9845 643.194 63.0287 646.803 52.0154C650.535 40.6238 661.989 33.6304 673.827 35.5154L682.122 36.8362C693.6 38.6637 705.221 34.5465 712.988 25.901L718.232 20.0629C729.445 7.58168 746.296 1.75558 762.823 4.64567L800.519 11.2375C814.845 13.7425 823.156 28.8797 817.581 42.3113C815.662 46.9342 815.325 52.0615 816.62 56.8961L819.484 67.5779C824.968 88.0356 841.666 103.557 862.469 107.534L1037.05 140.913C1051.1 143.599 1063.58 151.588 1071.9 163.224L1124.62 236.975C1131.37 246.422 1135 257.745 1135 269.358V420.101C1135 427.293 1133.61 434.418 1130.9 441.08L1065.83 601.071C1061.35 612.072 1053.48 621.354 1043.35 627.562L984.459 663.679C978.18 667.529 970.866 669.35 963.515 668.893L915.836 665.929C904.834 665.245 897.966 677.635 904.376 686.602C905.964 688.823 906.817 691.484 906.817 694.213V949.291C906.817 958.988 904.285 968.517 899.471 976.934Z" fill="black" fill-opacity="0.4" stroke="#FFEEB2" stroke-opacity="0.2"/>
<path d="M839.772 891.263L836.763 896.53C834.047 901.283 832.618 906.664 832.618 912.139V918.538C832.618 923.989 830.156 929.148 825.918 932.576C821.672 936.01 816.099 937.339 810.761 936.189L799.304 933.721C789.622 931.636 779.517 932.992 770.728 937.557L687.541 980.762C678.673 985.368 672.537 993.93 671.025 1003.81C669.214 1015.64 660.812 1025.41 649.381 1028.96L640.74 1031.65C635.742 1033.21 630.514 1033.89 625.283 1033.68L588.493 1032.19C578.372 1031.78 569.695 1024.83 567.074 1015.05C564.836 1006.69 558.125 1000.28 549.676 998.429L237.45 929.949C226.878 927.63 215.817 929.695 206.794 935.672L205.097 936.796C197.463 941.853 188.151 943.717 179.158 941.989C168.797 939.998 159.887 933.441 154.905 924.141L150.48 915.881C146.226 907.939 144 899.07 144 890.061V692.726C144 671.235 156.367 651.663 175.776 642.435L328.89 569.644C333.189 567.6 337.795 566.28 342.523 565.736L345.518 565.391C372.934 562.236 389.488 533.466 378.437 508.177C374.871 500.019 374.055 490.922 376.112 482.259L438.526 219.382C442.307 203.457 452.904 190.001 467.5 182.592L480.526 175.98C490.268 171.034 501.251 169.064 512.105 170.315L624.981 183.321C633.921 184.352 642.352 178.95 645.152 170.397C648.048 161.551 656.943 156.119 666.135 157.584L672.558 158.608C681.466 160.027 690.485 156.83 696.51 150.118L700.582 145.582C709.283 135.889 722.364 131.364 735.194 133.609L764.422 138.725C775.549 140.672 782.005 152.428 777.678 162.862C776.189 166.451 775.927 170.432 776.932 174.185L779.153 182.475C783.41 198.368 796.379 210.428 812.539 213.52L943.083 238.498C957.136 241.187 969.615 249.182 977.931 260.825L1013.63 310.803C1020.37 320.247 1024 331.563 1024 343.169V453.839C1024 461.026 1022.61 468.146 1019.9 474.804L971.857 593.029C967.387 604.03 959.517 613.313 949.397 619.524L907.184 645.431C902.308 648.424 896.627 649.839 890.916 649.484L853.937 647.183C845.393 646.651 840.058 656.272 845.033 663.238C846.265 664.962 846.927 667.028 846.927 669.147V864.322C846.927 873.772 844.461 883.058 839.772 891.263Z" fill="black" fill-opacity="0.6" stroke="#FFEEB2" stroke-opacity="0.3"/>
<path d="M792.979 812.507L790.732 816.433C788.704 819.975 787.637 823.986 787.637 828.068V832.82C787.637 836.892 785.796 840.746 782.627 843.304C779.461 845.861 775.308 846.85 771.329 845.994L762.761 844.152C755.532 842.598 747.987 843.609 741.422 847.013L679.298 879.22C672.685 882.649 668.107 889.029 666.978 896.392C665.626 905.211 659.362 912.485 650.842 915.131L644.356 917.145C640.63 918.303 636.733 918.813 632.834 918.655L605.33 917.541C597.786 917.236 591.317 912.062 589.36 904.771C587.689 898.542 582.684 893.764 576.383 892.385L343.229 841.339C335.338 839.612 327.083 841.151 320.344 845.606L319.076 846.445C313.376 850.214 306.427 851.603 299.715 850.316C291.975 848.831 285.316 843.936 281.589 836.992L278.302 830.868C275.122 824.941 273.457 818.319 273.457 811.592V673.516C273.457 652.011 285.84 632.428 305.268 623.209L411.521 572.787C414.724 571.266 418.157 570.284 421.68 569.879L423.995 569.613C444.426 567.267 456.758 545.822 448.51 526.984C445.846 520.899 445.237 514.112 446.774 507.65L491.852 318.129C495.641 302.199 506.32 288.708 520.926 281.307C530.657 276.377 541.666 274.39 552.504 275.636L632.616 284.851C639.282 285.618 645.568 281.591 647.659 275.216C649.822 268.621 656.454 264.573 663.308 265.663L668.127 266.43C674.777 267.487 681.509 265.103 686.012 260.097L689.048 256.72C695.546 249.494 705.305 246.122 714.878 247.794L736.744 251.614C745.035 253.062 749.845 261.824 746.615 269.597C745.503 272.274 745.307 275.243 746.059 278.043L747.719 284.232C750.896 296.069 760.56 305.049 772.599 307.348L864.589 324.918C878.633 327.6 891.107 335.582 899.428 347.21L920.14 376.156C926.903 385.608 930.539 396.938 930.539 408.56V483.687C930.539 490.886 929.143 498.017 926.429 504.685L893.361 585.908C888.882 596.909 881.004 606.189 870.875 612.394L843.305 629.284C839.67 631.511 835.437 632.564 831.182 632.299L803.536 630.582C797.168 630.187 793.194 637.36 796.907 642.549C797.827 643.835 798.321 645.376 798.321 646.957V792.421C798.321 799.468 796.48 806.391 792.979 812.507Z" fill="black" fill-opacity="0.8" stroke="#FFEEB2" stroke-opacity="0.4"/>
<circle opacity="0.5" cx="650" cy="578" r="318" fill="url(#paint0_radial_291_7)"/>
<defs>
<radialGradient id="paint0_radial_291_7" cx="0" cy="0" r="1" gradientUnits="userSpaceOnUse" gradientTransform="translate(650 578) rotate(90) scale(318)">
<stop stop-color="#FFE29E"/>
<stop offset="1" stop-color="#FFE29E" stop-opacity="0"/>
</radialGradient>
</defs>
</svg>
