<svg width="135" height="135" viewBox="0 0 135 135" fill="none" xmlns="http://www.w3.org/2000/svg">
<mask id="mask0_9195_638" style="mask-type:alpha" maskUnits="userSpaceOnUse" x="0" y="0" width="135" height="135">
<rect width="135" height="135" fill="#D9D9D9"/>
</mask>
<g mask="url(#mask0_9195_638)">
<g opacity="0.6" filter="url(#filter0_f_9195_638)">
<path d="M67.0616 117.426C64.6789 117.417 62.3214 116.939 60.124 116.017C57.9267 115.095 55.9328 113.749 54.2568 112.055L53.5038 111.302C43.9188 101.743 34.3482 92.169 24.7919 82.5809C20.4506 78.322 17.7749 72.6516 17.2481 66.5928C16.9336 63.1854 16.9812 53.8404 17.0527 45.3436V42.2697C17.0943 38.1156 18.5818 34.1058 21.2596 30.9296C23.9375 27.7535 27.6382 25.6095 31.7256 24.8663C32.7502 24.6805 36.5864 24.5375 54.5999 24.6137H56.1153C59.6818 24.5722 63.2192 25.2568 66.5126 26.6257C67.8634 27.1872 69.1616 27.859 70.3945 28.6326L63.844 33.2277C61.4164 32.2176 58.8064 31.7187 56.1773 31.7619H50.3252V31.7571C43.7155 31.7571 34.1846 31.781 32.8693 31.9239C30.463 32.4079 28.2942 33.6993 26.7221 35.5843C25.1499 37.4693 24.2689 39.8347 24.2247 42.2888V45.4055C24.1771 50.9859 24.0818 62.5945 24.3868 65.9399C24.758 70.3451 26.7115 74.4672 29.8862 77.5438C39.4171 87.1415 48.9798 96.7072 58.5743 106.241L59.332 106.994C60.3208 108.033 61.5089 108.861 62.8251 109.43C64.1413 109.998 65.5586 110.296 66.9925 110.304C68.426 110.313 69.847 110.032 71.1694 109.479C72.4923 108.926 73.6899 108.111 74.6911 107.085C83.0212 98.825 91.3179 90.5283 99.5812 82.1949C100.608 81.1946 101.422 79.998 101.974 78.6756C102.528 77.3537 102.808 75.934 102.8 74.5006C102.791 73.0676 102.494 71.6513 101.925 70.336C101.357 69.0208 100.529 67.8332 99.4907 66.8453L99.7109 57.0213C101.301 58.6136 102.891 60.206 104.48 61.7987C106.173 63.4518 107.521 65.4247 108.445 67.6035C109.368 69.7823 109.849 72.1226 109.86 74.4891C109.871 76.8552 109.41 79.2003 108.506 81.3872C107.602 83.574 106.273 85.5593 104.594 87.2273C96.3183 95.5764 88.0044 103.889 79.652 112.165C76.3166 115.516 71.789 117.407 67.0616 117.426Z" fill="#D9D9D9"/>
<path d="M99.4904 66.8455C89.7689 57.0985 80.0344 47.361 70.2876 37.6331C68.4653 35.7377 66.2718 34.238 63.8438 33.2279L70.2942 28.5703C72.1058 29.6957 73.7783 31.0402 75.2723 32.5769C83.3506 40.6472 91.4233 48.7219 99.4904 56.8008V66.8455Z" fill="#080817" stroke="url(#paint0_linear_9195_638)" stroke-width="1.08337" stroke-linecap="round" stroke-linejoin="round" stroke-dasharray="3.1 3.1"/>
<path d="M68.3108 30.6304L54.7428 32.4331C53.8943 32.5602 53.105 32.9391 52.4797 33.5363C50.8159 35.1108 50.7569 37.7429 52.3392 39.4094L61.9217 49.1972C62.8612 50.1717 63.2721 51.5366 63.0108 52.8669L60.4127 66.4674C60.2217 67.369 60.3532 68.3044 60.7726 69.1243C61.7886 71.1172 64.2367 71.9097 66.2323 70.8858L78.4666 64.6096C79.6624 63.9953 81.0848 64.0148 82.265 64.6607L94.2136 71.2594C95.0082 71.6871 95.9046 71.842 96.7988 71.7051C99.0438 71.3484 100.574 69.2407 100.226 66.9986L98.2061 53.3383C98.0179 51.9982 98.4843 50.6444 99.4578 49.7054L109.45 40.2005C110.106 39.5883 110.539 38.7788 110.696 37.9008C111.085 35.6556 109.586 33.5219 107.349 33.1362L93.8715 30.9739C92.5409 30.7643 91.4086 29.9028 90.8477 28.6744L85.073 16.2023C84.6846 15.3666 84.0269 14.695 83.2017 14.2823C81.1954 13.2744 78.7572 14.0948 77.7591 16.0956L71.4335 28.4206C70.8148 29.619 69.6476 30.449 68.3108 30.6304Z" fill="url(#paint1_linear_9195_638)" fill-opacity="0.17" stroke="url(#paint2_linear_9195_638)" stroke-width="6.02749" stroke-linecap="round" stroke-linejoin="round"/>
</g>
<path d="M68.2794 117.426C65.8966 117.417 63.5392 116.939 61.3418 116.017C59.1444 115.095 57.1506 113.749 55.4746 112.055L54.7216 111.302C45.1366 101.743 35.566 92.1691 26.0096 82.5809C21.6683 78.322 18.9927 72.6516 18.4659 66.5928C18.1514 63.1854 18.199 53.8404 18.2705 45.3436V42.2697C18.3121 38.1156 19.7996 34.1058 22.4774 30.9296C25.1552 27.7535 28.856 25.6095 32.9434 24.8663C33.9679 24.6805 37.8041 24.5375 55.8177 24.6137H57.3331C60.8996 24.5722 64.437 25.2568 67.7304 26.6257C69.0812 27.1872 70.3793 27.859 71.6123 28.6326L65.0617 33.2277C62.6342 32.2176 60.0241 31.7187 57.395 31.7619H51.543V31.7571C44.9333 31.7571 35.4024 31.781 34.0871 31.9239C31.6807 32.4079 29.512 33.6993 27.9398 35.5843C26.3677 37.4693 25.4866 39.8347 25.4425 42.2888V45.4055C25.3948 50.9859 25.2996 62.5945 25.6046 65.9399C25.9758 70.3451 27.9293 74.4672 31.1039 77.5438C40.6349 87.1415 50.1976 96.7072 59.7921 106.241L60.5498 106.994C61.5386 108.033 62.7267 108.861 64.0429 109.43C65.3591 109.998 66.7764 110.296 68.2103 110.304C69.6437 110.313 71.0648 110.032 72.3872 109.479C73.7101 108.926 74.9077 108.111 75.9089 107.085C84.2389 98.825 92.5356 90.5283 100.799 82.1949C101.825 81.1946 102.639 79.998 103.192 78.6756C103.745 77.3537 104.026 75.934 104.018 74.5006C104.009 73.0676 103.712 71.6513 103.143 70.336C102.575 69.0208 101.746 67.8332 100.708 66.8453L100.929 57.0213C102.519 58.6136 104.108 60.2061 105.698 61.7987C107.391 63.4518 108.739 65.4247 109.662 67.6035C110.586 69.7823 111.067 72.1226 111.078 74.4891C111.089 76.8552 110.628 79.2003 109.724 81.3872C108.82 83.574 107.491 85.5593 105.812 87.2273C97.5361 95.5764 89.2222 103.889 80.8698 112.165C77.5344 115.516 73.0067 117.407 68.2794 117.426Z" fill="white"/>
<g filter="url(#filter1_d_9195_638)">
<rect x="35.2534" y="43.1895" width="9.0641" height="9.0641" rx="4.53205" fill="white"/>
</g>
<path d="M100.708 66.8455C90.9867 57.0985 81.2522 47.361 71.5054 37.6331C69.6831 35.7377 67.4895 34.238 65.0615 33.2279L71.512 28.5703C73.3236 29.6957 74.9961 31.0402 76.4901 32.5769C84.5684 40.6472 92.6411 48.7219 100.708 56.8008V66.8455Z" fill="#20214C" stroke="url(#paint3_linear_9195_638)" stroke-width="1.08337" stroke-linecap="round" stroke-linejoin="round" stroke-dasharray="3.1 3.1"/>
<path d="M69.5284 30.6301L55.9605 32.4328C55.112 32.5599 54.3227 32.9388 53.6974 33.536C52.0336 35.1105 51.9745 37.7426 53.5569 39.4091L63.1393 49.1968C64.0788 50.1714 64.4898 51.5363 64.2284 52.8666L61.6304 66.4671C61.4394 67.3687 61.5709 68.3041 61.9903 69.124C63.0063 71.1169 65.4544 71.9094 67.45 70.8855L79.6842 64.6093C80.88 63.995 82.3025 64.0145 83.4827 64.6604L95.4313 71.2591C96.2259 71.6868 97.1223 71.8417 98.0164 71.7048C100.261 71.3481 101.792 69.2404 101.444 66.9983L99.4238 53.338C99.2356 51.9979 99.702 50.6441 100.675 49.7051L110.668 40.2002C111.324 39.588 111.757 38.7785 111.914 37.9005C112.302 35.6553 110.804 33.5216 108.566 33.1359L95.0892 30.9736C93.7586 30.764 92.6263 29.9025 92.0654 28.6741L86.2907 16.202C85.9023 15.3663 85.2446 14.6947 84.4193 14.2819C82.4131 13.2741 79.9748 14.0945 78.9768 16.0953L72.6512 28.4203C72.0325 29.6187 70.8653 30.4487 69.5284 30.6301Z" fill="url(#paint4_linear_9195_638)" fill-opacity="0.2" stroke="url(#paint5_linear_9195_638)" stroke-width="6.02749" stroke-linecap="round" stroke-linejoin="round"/>
</g>
<defs>
<filter id="filter0_f_9195_638" x="-1.25301" y="-7.41707" width="133.278" height="143.096" filterUnits="userSpaceOnUse" color-interpolation-filters="sRGB">
<feFlood flood-opacity="0" result="BackgroundImageFix"/>
<feBlend mode="normal" in="SourceGraphic" in2="BackgroundImageFix" result="shape"/>
<feGaussianBlur stdDeviation="9.12651" result="effect1_foregroundBlur_9195_638"/>
</filter>
<filter id="filter1_d_9195_638" x="24.7884" y="37.5919" width="29.9941" height="29.9946" filterUnits="userSpaceOnUse" color-interpolation-filters="sRGB">
<feFlood flood-opacity="0" result="BackgroundImageFix"/>
<feColorMatrix in="SourceAlpha" type="matrix" values="0 0 0 0 0 0 0 0 0 0 0 0 0 0 0 0 0 0 127 0" result="hardAlpha"/>
<feOffset dy="4.86747"/>
<feGaussianBlur stdDeviation="5.23253"/>
<feComposite in2="hardAlpha" operator="out"/>
<feColorMatrix type="matrix" values="0 0 0 0 1 0 0 0 0 1 0 0 0 0 1 0 0 0 0.25 0"/>
<feBlend mode="normal" in2="BackgroundImageFix" result="effect1_dropShadow_9195_638"/>
<feBlend mode="normal" in="SourceGraphic" in2="effect1_dropShadow_9195_638" result="shape"/>
</filter>
<linearGradient id="paint0_linear_9195_638" x1="86.4225" y1="39.506" x2="83.4957" y2="54.6771" gradientUnits="userSpaceOnUse">
<stop stop-color="#4D7FF5"/>
<stop offset="1" stop-color="#8274F6"/>
</linearGradient>
<linearGradient id="paint1_linear_9195_638" x1="76.2522" y1="14.7729" x2="87.4774" y2="72.5803" gradientUnits="userSpaceOnUse">
<stop stop-color="#427FF4"/>
<stop offset="1" stop-color="#9070F7"/>
</linearGradient>
<linearGradient id="paint2_linear_9195_638" x1="76.2522" y1="14.7729" x2="87.4774" y2="72.5803" gradientUnits="userSpaceOnUse">
<stop stop-color="#427FF4"/>
<stop offset="1" stop-color="#9070F7"/>
</linearGradient>
<linearGradient id="paint3_linear_9195_638" x1="100.708" y1="28.5703" x2="64.369" y2="29.4093" gradientUnits="userSpaceOnUse">
<stop stop-color="#E7EEFF"/>
<stop offset="0.5" stop-color="#A9C1FF"/>
<stop offset="1" stop-color="#C8F5D6"/>
</linearGradient>
<linearGradient id="paint4_linear_9195_638" x1="111.975" y1="13.8506" x2="51.2586" y2="15.399" gradientUnits="userSpaceOnUse">
<stop stop-color="#E7EEFF"/>
<stop offset="0.5" stop-color="#A9C1FF"/>
<stop offset="1" stop-color="#C8F5D6"/>
</linearGradient>
<linearGradient id="paint5_linear_9195_638" x1="111.975" y1="13.8506" x2="51.2586" y2="15.399" gradientUnits="userSpaceOnUse">
<stop stop-color="#E7EEFF"/>
<stop offset="0.5" stop-color="#A9C1FF"/>
<stop offset="1" stop-color="#C8F5D6"/>
</linearGradient>
</defs>
</svg>
