<svg width="135" height="135" viewBox="0 0 135 135" fill="none" xmlns="http://www.w3.org/2000/svg">
<mask id="mask0_9196_651" style="mask-type:alpha" maskUnits="userSpaceOnUse" x="0" y="0" width="135" height="135">
<rect width="135" height="135" fill="#D9D9D9"/>
</mask>
<g mask="url(#mask0_9196_651)">
<g opacity="0.6" filter="url(#filter0_f_9196_651)">
<path d="M79.8068 20.1338L46.0387 20.134C43.8596 20.134 42.3364 22.2668 43.0624 24.3005L55.8667 53.0447C56.5927 55.0771 55.0683 57.2112 52.8892 57.2112L27.1626 57.2112C24.4496 57.2112 23.0001 60.3746 24.7879 62.3951L69.8737 117.578C72.0745 120.065 76.1598 117.908 75.2985 114.713L65.9878 80.1512C65.4526 78.1678 66.9638 76.2215 69.0378 76.2215H92.6283C94.708 76.2215 96.2089 74.2301 95.6359 72.2309L94.0417 66.6679" stroke="white" stroke-width="6.19556" stroke-linecap="round" stroke-linejoin="round"/>
<path d="M94.9296 61.9401L90.668 62.7264L77.158 23.7002L81.3311 23.579L94.9296 61.9401Z" fill="#242552"/>
<path d="M95.1783 63.3058L90.1889 63.5122L77.5565 22.6385L82.3924 23.0853L95.1783 63.3058Z" fill="#18193E"/>
<path d="M86.4425 68.5992C72.4776 69.1174 60.6935 58.1765 60.1751 44.2073C59.6568 30.238 70.5979 18.4583 84.5627 17.9401C98.5276 17.4219 110.312 28.3628 110.83 42.3277C111.348 56.2926 100.407 68.0811 86.4425 68.5992ZM84.805 24.4678C74.439 24.8524 66.3182 33.5991 66.7028 43.9651C67.0875 54.331 75.8343 62.4562 86.2003 62.0716C96.5662 61.6869 104.687 52.9402 104.302 42.5699C103.917 32.1996 95.1709 24.0831 84.805 24.4678Z" fill="url(#paint0_linear_9196_651)"/>
<path d="M85.6764 24.7574C75.2404 24.7574 66.7496 33.2482 66.7496 43.6842C66.7496 54.1203 75.2404 62.6155 85.6764 62.6155C96.1125 62.6155 104.603 54.1247 104.603 43.6842C104.603 33.2438 96.1125 24.7574 85.6764 24.7574Z" fill="url(#paint1_linear_9196_651)" fill-opacity="0.16"/>
<path d="M83.2082 24.2284L95.019 60.6592" stroke="url(#paint2_linear_9196_651)" stroke-width="0.830261" stroke-linecap="round" stroke-linejoin="round" stroke-dasharray="4.03 4.03"/>
<path d="M77.6344 24.5575L89.4453 60.9883" stroke="url(#paint3_linear_9196_651)" stroke-width="0.830261" stroke-linecap="round" stroke-linejoin="round" stroke-dasharray="4.03 4.03"/>
<path d="M76.958 43.6843L82.4728 49.3114L87.7089 43.1161L91.9267 38.0176" stroke="url(#paint4_linear_9196_651)" stroke-width="4.23309" stroke-linecap="round" stroke-linejoin="round"/>
</g>
<path d="M79.8068 20.1338L46.0387 20.134C43.8596 20.134 42.3364 22.2668 43.0624 24.3005L55.8667 53.0447C56.5927 55.0771 55.0683 57.2112 52.8892 57.2112L27.1626 57.2112C24.4496 57.2112 23.0001 60.3746 24.7879 62.3951L69.8737 117.578C72.0745 120.065 76.1598 117.908 75.2985 114.713L65.9878 80.1513C65.4526 78.1678 66.9638 76.2215 69.0378 76.2215H92.6283C94.708 76.2215 96.2088 74.2301 95.6359 72.2309L94.0417 66.6679" stroke="white" stroke-width="6.19556" stroke-linecap="round" stroke-linejoin="round"/>
<path d="M94.9454 60.1579L89.6245 62.5227L77.8003 25.2766L83.7124 23.5029L94.9454 60.1579Z" fill="#202050"/>
<path d="M77.7896 25.2768L90.2153 64.8877" stroke="url(#paint5_linear_9196_651)" stroke-width="0.830261" stroke-linecap="round" stroke-linejoin="round" stroke-dasharray="2.54 2.54"/>
<path d="M83.1208 21.138L96.1274 63.7051" stroke="url(#paint6_linear_9196_651)" stroke-width="0.830261" stroke-linecap="round" stroke-linejoin="round" stroke-dasharray="2.54 2.54"/>
<path d="M85.4858 23.7039C74.8392 23.7039 66.1771 32.3652 66.1771 43.011C66.1771 53.6567 74.8392 62.3225 85.4858 62.3225C96.1325 62.3225 104.795 53.6612 104.795 43.011C104.795 32.3608 96.1325 23.7039 85.4858 23.7039Z" fill="url(#paint7_linear_9196_651)" fill-opacity="0.2"/>
<path d="M86.4423 68.5997C72.4774 69.1178 60.6932 58.1769 60.1749 44.2077C59.6566 30.2385 70.5976 18.4587 84.5625 17.9405C98.5274 17.4223 110.312 28.3633 110.83 42.3281C111.348 56.293 100.407 68.0815 86.4423 68.5997ZM84.8047 24.4682C74.4388 24.8528 66.318 33.5995 66.7026 43.9655C67.0872 54.3314 75.8341 62.4566 86.2 62.072C96.566 61.6873 104.687 52.9406 104.302 42.5703C103.917 32.2 95.1707 24.0836 84.8047 24.4682Z" fill="url(#paint8_linear_9196_651)"/>
<path fill-rule="evenodd" clip-rule="evenodd" d="M93.2756 36.3872C94.1763 37.1323 94.3024 38.4665 93.5573 39.3672L89.3395 44.4657L89.3252 44.4828L84.0891 50.6781C83.7045 51.1331 83.1459 51.405 82.5505 51.427C81.9551 51.4489 81.378 51.2189 80.961 50.7933L75.4461 45.1662C74.6279 44.3314 74.6414 42.9913 75.4762 42.1731C76.3111 41.3549 77.6511 41.3684 78.4693 42.2033L82.3569 46.1699L86.085 41.7588L90.2956 36.6689C91.0407 35.7682 92.3749 35.6421 93.2756 36.3872Z" fill="url(#paint9_linear_9196_651)"/>
</g>
<defs>
<filter id="filter0_f_9196_651" x="2.91641" y="-0.97275" width="126.827" height="140.697" filterUnits="userSpaceOnUse" color-interpolation-filters="sRGB">
<feFlood flood-opacity="0" result="BackgroundImageFix"/>
<feBlend mode="normal" in="SourceGraphic" in2="BackgroundImageFix" result="shape"/>
<feGaussianBlur stdDeviation="8.98637" result="effect1_foregroundBlur_9196_651"/>
</filter>
<linearGradient id="paint0_linear_9196_651" x1="60.1888" y1="44.5765" x2="110.064" y2="42.7259" gradientUnits="userSpaceOnUse">
<stop stop-color="#427FF4"/>
<stop offset="1" stop-color="#9070F7"/>
</linearGradient>
<linearGradient id="paint1_linear_9196_651" x1="92.4797" y1="32.7574" x2="88.8299" y2="53.0695" gradientUnits="userSpaceOnUse">
<stop stop-color="#4D7FF5"/>
<stop offset="1" stop-color="#8274F6"/>
</linearGradient>
<linearGradient id="paint2_linear_9196_651" x1="85.5396" y1="11.7118" x2="95.6681" y2="63.3483" gradientUnits="userSpaceOnUse">
<stop stop-color="#6978F6"/>
<stop offset="1" stop-color="#7975F7"/>
</linearGradient>
<linearGradient id="paint3_linear_9196_651" x1="79.9659" y1="12.0409" x2="90.0944" y2="63.6774" gradientUnits="userSpaceOnUse">
<stop stop-color="#6978F6"/>
<stop offset="1" stop-color="#7975F7"/>
</linearGradient>
<linearGradient id="paint4_linear_9196_651" x1="76.9742" y1="44.1232" x2="91.8992" y2="43.5694" gradientUnits="userSpaceOnUse">
<stop stop-color="#427FF4"/>
<stop offset="1" stop-color="#9070F7"/>
</linearGradient>
<linearGradient id="paint5_linear_9196_651" x1="68.8469" y1="59.2655" x2="90.7261" y2="64.659" gradientUnits="userSpaceOnUse">
<stop stop-color="#E7EEFF"/>
<stop offset="0.5" stop-color="#A9C1FF"/>
<stop offset="1" stop-color="#C8F5D6"/>
</linearGradient>
<linearGradient id="paint6_linear_9196_651" x1="73.4883" y1="57.7485" x2="96.6672" y2="63.4687" gradientUnits="userSpaceOnUse">
<stop stop-color="#E7EEFF"/>
<stop offset="0.5" stop-color="#A9C1FF"/>
<stop offset="1" stop-color="#C8F5D6"/>
</linearGradient>
<linearGradient id="paint7_linear_9196_651" x1="111.499" y1="17" x2="58.4663" y2="18.3147" gradientUnits="userSpaceOnUse">
<stop stop-color="#E7EEFF"/>
<stop offset="0.5" stop-color="#A9C1FF"/>
<stop offset="1" stop-color="#C8F5D6"/>
</linearGradient>
<linearGradient id="paint8_linear_9196_651" x1="110.847" y1="17.9229" x2="59.1767" y2="19.2037" gradientUnits="userSpaceOnUse">
<stop stop-color="#E7EEFF"/>
<stop offset="0.5" stop-color="#A9C1FF"/>
<stop offset="1" stop-color="#C8F5D6"/>
</linearGradient>
<linearGradient id="paint9_linear_9196_651" x1="110.847" y1="17.9229" x2="59.1767" y2="19.2037" gradientUnits="userSpaceOnUse">
<stop stop-color="#E7EEFF"/>
<stop offset="0.5" stop-color="#A9C1FF"/>
<stop offset="1" stop-color="#C8F5D6"/>
</linearGradient>
</defs>
</svg>
