<svg width="135" height="135" viewBox="0 0 135 135" fill="none" xmlns="http://www.w3.org/2000/svg">
<mask id="mask0_9196_684" style="mask-type:alpha" maskUnits="userSpaceOnUse" x="0" y="0" width="135" height="135">
<rect width="135" height="135" fill="#D9D9D9"/>
</mask>
<g mask="url(#mask0_9196_684)">
<g opacity="0.5" filter="url(#filter0_f_9196_684)">
<path d="M62.9341 115.954C62.6214 115.954 62.3087 115.907 62.0045 115.817C61.6104 115.697 52.2754 112.827 42.8462 106.037C30.0583 96.826 23.298 84.8178 23.298 71.3102C23.298 62.1808 23.1781 55.5663 23.0881 50.7381C22.8696 38.8156 22.8268 36.3351 25.8342 33.3277C28.0405 31.1214 36.8014 27.7327 43.7587 25.278C47.2716 24.0399 59.0313 20 62.9341 20C63.7824 20 65.4189 20.1414 69.8357 21.358C71.5451 21.8293 72.5518 23.5986 72.0806 25.3079C71.6093 27.0173 69.84 28.024 68.1307 27.5528C64.1551 26.4604 63.0455 26.4261 62.9341 26.4261C58.7957 26.4261 33.2842 35.4055 30.3581 37.8902C29.3899 38.8713 29.3214 40.0066 29.5142 50.6182C29.6041 55.472 29.7241 62.1166 29.7241 71.3059C29.7241 82.7743 35.3534 92.6705 46.4619 100.716C53.3978 105.741 60.4494 108.474 62.9384 109.348C67.2268 107.832 85.1898 100.733 92.734 85.7903C93.5352 84.2052 95.4673 83.5711 97.0524 84.3723C98.6375 85.1734 99.2715 87.1055 98.4704 88.6906C88.6556 108.123 64.8791 115.513 63.8723 115.817C63.5682 115.907 63.2554 115.954 62.9427 115.954H62.9341Z" fill="white"/>
<path d="M62.9341 115.954C62.6214 115.954 62.3087 115.907 62.0045 115.817C61.6104 115.697 52.2754 112.827 42.8462 106.037C30.0583 96.826 23.298 84.8178 23.298 71.3102C23.298 62.1808 23.1781 55.5663 23.0881 50.7381C22.8696 38.8156 22.8268 36.3351 25.8342 33.3277C28.0405 31.1214 36.8014 27.7327 43.7587 25.278C47.2716 24.0399 59.0313 20 62.9341 20C63.7824 20 65.4189 20.1414 69.8357 21.358C71.5451 21.8293 72.5518 23.5986 72.0806 25.3079C71.6093 27.0173 69.84 28.024 68.1307 27.5528C64.1551 26.4604 63.0455 26.4261 62.9341 26.4261C58.7957 26.4261 33.2842 35.4055 30.3581 37.8902C29.3899 38.8713 29.3214 40.0066 29.5142 50.6182C29.6041 55.472 29.7241 62.1166 29.7241 71.3059C29.7241 82.7743 35.3534 92.6705 46.4619 100.716C53.3978 105.741 60.4494 108.474 62.9384 109.348C67.2268 107.832 85.1898 100.733 92.734 85.7903C93.5352 84.2052 95.4673 83.5711 97.0524 84.3723C98.6375 85.1734 99.2715 87.1055 98.4704 88.6906C88.6556 108.123 64.8791 115.513 63.8723 115.817C63.5682 115.907 63.2554 115.954 62.9427 115.954H62.9341Z" stroke="#262B54"/>
<path d="M58.003 81.8009C57.1504 81.8009 56.3322 81.4625 55.7281 80.8584L43.7884 68.8973C42.5332 67.6421 42.5375 65.6072 43.7884 64.3519C45.0437 63.0967 47.0786 63.101 48.3338 64.3519L58.003 74.0339L65.59 66.4425C66.8453 65.1873 68.8802 65.1873 70.1354 66.4425C71.3906 67.6978 71.3906 69.7327 70.1354 70.9879L60.2735 80.8541C59.6695 81.4582 58.8555 81.7966 58.003 81.7966V81.8009Z" fill="white"/>
<path d="M58.003 81.8009C57.1504 81.8009 56.3322 81.4625 55.7281 80.8584L43.7884 68.8973C42.5332 67.6421 42.5375 65.6072 43.7884 64.3519C45.0437 63.0967 47.0786 63.101 48.3338 64.3519L58.003 74.0339L65.59 66.4425C66.8453 65.1873 68.8802 65.1873 70.1354 66.4425C71.3906 67.6978 71.3906 69.7327 70.1354 70.9879L60.2735 80.8541C59.6695 81.4582 58.8555 81.7966 58.003 81.7966V81.8009Z" stroke="#262B54"/>
<path d="M88.9344 47.4078C86.7369 45.1909 83.1744 45.1909 80.9768 47.4078L62.6914 65.6089L70.6488 73.6363L88.9344 55.4354C91.132 53.2185 91.132 49.6246 88.9344 47.4078Z" fill="#141531" stroke="url(#paint0_linear_9196_684)" stroke-width="0.85819" stroke-linecap="round" stroke-dasharray="2.31 2.31"/>
<path fill-rule="evenodd" clip-rule="evenodd" d="M59.7222 54.9362C59.7222 68.688 70.9078 79.8737 84.6554 79.8737C90.0842 79.8737 95.1135 78.1287 99.2122 75.1704L106.003 81.945C106.633 82.5705 107.451 82.8832 108.274 82.8832C109.096 82.8832 109.923 82.5705 110.549 81.9407C111.804 80.6812 111.8 78.6506 110.544 77.3953L103.903 70.7699C107.454 66.46 109.589 60.9422 109.589 54.9362C109.589 41.1886 98.4029 30.0029 84.6554 30.0029C70.9078 30.0029 59.7222 41.1843 59.7222 54.9362ZM66.1483 54.9362C66.1483 44.7315 74.4508 36.429 84.6554 36.429C94.86 36.429 103.163 44.7272 103.163 54.9362C103.163 65.1451 94.86 73.4476 84.6554 73.4476C74.4508 73.4476 66.1483 65.1408 66.1483 54.9362Z" fill="url(#paint1_linear_9196_684)"/>
<path d="M84.6554 36.429C74.4508 36.429 66.1483 44.7315 66.1483 54.9361C66.1483 65.1408 74.4508 73.4476 84.6554 73.4476C94.86 73.4476 103.163 65.1451 103.163 54.9361C103.163 44.7272 94.86 36.429 84.6554 36.429Z" fill="url(#paint2_linear_9196_684)" fill-opacity="0.24"/>
</g>
<path d="M62.9341 115.954C62.6214 115.954 62.3087 115.907 62.0045 115.817C61.6104 115.697 52.2754 112.827 42.8462 106.037C30.0583 96.826 23.298 84.8178 23.298 71.3102C23.298 62.1808 23.1781 55.5663 23.0881 50.7381C22.8696 38.8156 22.8268 36.3351 25.8342 33.3277C28.0405 31.1214 36.8014 27.7327 43.7587 25.278C47.2716 24.0399 59.0313 20 62.9341 20C63.7824 20 65.4189 20.1414 69.8357 21.358C71.5451 21.8293 72.5518 23.5986 72.0806 25.3079C71.6093 27.0173 69.84 28.024 68.1307 27.5528C64.1551 26.4604 63.0455 26.4261 62.9341 26.4261C58.7957 26.4261 33.2842 35.4055 30.3581 37.8902C29.3899 38.8713 29.3214 40.0066 29.5142 50.6182C29.6041 55.472 29.7241 62.1166 29.7241 71.3059C29.7241 82.7743 35.3534 92.6705 46.4619 100.716C53.3978 105.741 60.4494 108.474 62.9384 109.348C67.2268 107.832 85.1898 100.733 92.734 85.7903C93.5352 84.2052 95.4673 83.5711 97.0524 84.3723C98.6375 85.1734 99.2715 87.1055 98.4704 88.6906C88.6556 108.123 64.8791 115.513 63.8723 115.817C63.5682 115.907 63.2554 115.954 62.9427 115.954H62.9341Z" fill="white"/>
<path d="M62.9341 115.954C62.6214 115.954 62.3087 115.907 62.0045 115.817C61.6104 115.697 52.2754 112.827 42.8462 106.037C30.0583 96.826 23.298 84.8178 23.298 71.3102C23.298 62.1808 23.1781 55.5663 23.0881 50.7381C22.8696 38.8156 22.8268 36.3351 25.8342 33.3277C28.0405 31.1214 36.8014 27.7327 43.7587 25.278C47.2716 24.0399 59.0313 20 62.9341 20C63.7824 20 65.4189 20.1414 69.8357 21.358C71.5451 21.8293 72.5518 23.5986 72.0806 25.3079C71.6093 27.0173 69.84 28.024 68.1307 27.5528C64.1551 26.4604 63.0455 26.4261 62.9341 26.4261C58.7957 26.4261 33.2842 35.4055 30.3581 37.8902C29.3899 38.8713 29.3214 40.0066 29.5142 50.6182C29.6041 55.472 29.7241 62.1166 29.7241 71.3059C29.7241 82.7743 35.3534 92.6705 46.4619 100.716C53.3978 105.741 60.4494 108.474 62.9384 109.348C67.2268 107.832 85.1898 100.733 92.734 85.7903C93.5352 84.2052 95.4673 83.5711 97.0524 84.3723C98.6375 85.1734 99.2715 87.1055 98.4704 88.6906C88.6556 108.123 64.8791 115.513 63.8723 115.817C63.5682 115.907 63.2554 115.954 62.9427 115.954H62.9341Z" stroke="#262B54"/>
<path d="M58.003 81.8009C57.1504 81.8009 56.3322 81.4625 55.7281 80.8584L43.7884 68.8973C42.5332 67.6421 42.5375 65.6072 43.7884 64.3519C45.0437 63.0967 47.0786 63.101 48.3338 64.3519L58.003 74.0339L65.59 66.4425C66.8453 65.1873 68.8802 65.1873 70.1354 66.4425C71.3906 67.6978 71.3906 69.7327 70.1354 70.9879L60.2735 80.8541C59.6695 81.4582 58.8555 81.7966 58.003 81.7966V81.8009Z" fill="white"/>
<path d="M58.003 81.8009C57.1504 81.8009 56.3322 81.4625 55.7281 80.8584L43.7884 68.8973C42.5332 67.6421 42.5375 65.6072 43.7884 64.3519C45.0437 63.0967 47.0786 63.101 48.3338 64.3519L58.003 74.0339L65.59 66.4425C66.8453 65.1873 68.8802 65.1873 70.1354 66.4425C71.3906 67.6978 71.3906 69.7327 70.1354 70.9879L60.2735 80.8541C59.6695 81.4582 58.8555 81.7966 58.003 81.7966V81.8009Z" stroke="#262B54"/>
<path d="M88.9344 47.4078C86.7369 45.1909 83.1744 45.1909 80.9768 47.4078L62.6914 65.6089L70.6488 73.6363L88.9344 55.4354C91.132 53.2185 91.132 49.6246 88.9344 47.4078Z" fill="#141531" stroke="url(#paint3_linear_9196_684)" stroke-width="0.85819" stroke-linecap="round" stroke-dasharray="2.31 2.31"/>
<path fill-rule="evenodd" clip-rule="evenodd" d="M59.7222 54.9362C59.7222 68.688 70.9078 79.8737 84.6554 79.8737C90.0842 79.8737 95.1135 78.1287 99.2122 75.1704L106.003 81.945C106.633 82.5705 107.451 82.8832 108.274 82.8832C109.096 82.8832 109.923 82.5705 110.549 81.9407C111.804 80.6812 111.8 78.6506 110.544 77.3953L103.903 70.7699C107.454 66.46 109.589 60.9422 109.589 54.9362C109.589 41.1886 98.4029 30.0029 84.6554 30.0029C70.9078 30.0029 59.7222 41.1843 59.7222 54.9362ZM66.1483 54.9362C66.1483 44.7315 74.4508 36.429 84.6554 36.429C94.86 36.429 103.163 44.7272 103.163 54.9362C103.163 65.1451 94.86 73.4476 84.6554 73.4476C74.4508 73.4476 66.1483 65.1408 66.1483 54.9362Z" fill="url(#paint4_linear_9196_684)"/>
<path d="M84.6559 36.429C74.4513 36.429 66.1487 44.7315 66.1487 54.9361C66.1487 65.1408 74.4513 73.4476 84.6559 73.4476C94.8605 73.4476 103.163 65.1451 103.163 54.9361C103.163 44.7272 94.8605 36.429 84.6559 36.429Z" fill="url(#paint5_linear_9196_684)" fill-opacity="0.2"/>
</g>
<defs>
<filter id="filter0_f_9196_684" x="6.90893" y="3.90893" width="120.67" height="128.136" filterUnits="userSpaceOnUse" color-interpolation-filters="sRGB">
<feFlood flood-opacity="0" result="BackgroundImageFix"/>
<feBlend mode="normal" in="SourceGraphic" in2="BackgroundImageFix" result="shape"/>
<feGaussianBlur stdDeviation="8.04553" result="effect1_foregroundBlur_9196_684"/>
</filter>
<linearGradient id="paint0_linear_9196_684" x1="54.9637" y1="83.3828" x2="94.983" y2="62.9997" gradientUnits="userSpaceOnUse">
<stop stop-color="#2C42B3"/>
<stop offset="1" stop-color="#9F7DFF"/>
</linearGradient>
<linearGradient id="paint1_linear_9196_684" x1="59.7222" y1="56.8263" x2="98.5934" y2="56.0095" gradientUnits="userSpaceOnUse">
<stop stop-color="#4399FF"/>
<stop offset="1" stop-color="#A57BFF"/>
</linearGradient>
<linearGradient id="paint2_linear_9196_684" x1="91.3078" y1="44.2516" x2="87.7389" y2="64.1133" gradientUnits="userSpaceOnUse">
<stop stop-color="#4D7FF5"/>
<stop offset="1" stop-color="#8274F6"/>
</linearGradient>
<linearGradient id="paint3_linear_9196_684" x1="90.5826" y1="45.7451" x2="62.1519" y2="46.4499" gradientUnits="userSpaceOnUse">
<stop stop-color="#E7EEFF"/>
<stop offset="0.5" stop-color="#A9C1FF"/>
<stop offset="1" stop-color="#C8F5D6"/>
</linearGradient>
<linearGradient id="paint4_linear_9196_684" x1="111.488" y1="30.0029" x2="58.7195" y2="31.2835" gradientUnits="userSpaceOnUse">
<stop stop-color="#E7EEFF"/>
<stop offset="0.5" stop-color="#A9C1FF"/>
<stop offset="1" stop-color="#C8F5D6"/>
</linearGradient>
<linearGradient id="paint5_linear_9196_684" x1="109.589" y1="30.0029" x2="58.7581" y2="31.263" gradientUnits="userSpaceOnUse">
<stop stop-color="#E7EEFF"/>
<stop offset="0.5" stop-color="#A9C1FF"/>
<stop offset="1" stop-color="#C8F5D6"/>
</linearGradient>
</defs>
</svg>
